<svg width="44" height="44" viewBox="0 0 44 44" fill="none" xmlns="http://www.w3.org/2000/svg">
<circle cx="22" cy="22" r="22" fill="white"/>
<path d="M21.4462 25.4972C22.6537 25.4972 23.6783 25.1019 24.5201 24.3113C25.3619 23.5207 25.7828 22.5583 25.7828 21.4243C25.7828 20.2903 25.3619 19.328 24.5201 18.5373C23.6783 17.7467 22.6537 17.3514 21.4462 17.3514C20.2388 17.3514 19.2142 17.7467 18.3724 18.5373C17.5306 19.328 17.1097 20.2903 17.1097 21.4243C17.1097 22.5583 17.5306 23.5207 18.3724 24.3113C19.2142 25.1019 20.2388 25.4972 21.4462 25.4972ZM21.4462 24.1076C20.647 24.1076 19.971 23.8481 19.4183 23.329C18.8656 22.8099 18.5892 22.175 18.5892 21.4243C18.5892 20.6736 18.8656 20.0387 19.4183 19.5196C19.971 19.0005 20.647 18.741 21.4462 18.741C22.2455 18.741 22.9215 19.0005 23.4742 19.5196C24.0269 20.0387 24.3033 20.6736 24.3033 21.4243C24.3033 22.175 24.0269 22.8099 23.4742 23.329C22.9215 23.8481 22.2455 24.1076 21.4462 24.1076ZM21.4462 28.6118C18.9633 28.6118 16.7185 27.949 14.7118 26.6233C12.7051 25.2976 11.2085 23.5646 10.2222 21.4243C11.2085 19.284 12.7051 17.5511 14.7118 16.2254C16.7185 14.8997 18.9633 14.2368 21.4462 14.2368C23.9291 14.2368 26.174 14.8997 28.1807 16.2254C30.1874 17.5511 31.684 19.284 32.6703 21.4243C31.684 23.5646 30.1874 25.2976 28.1807 26.6233C26.174 27.949 23.9291 28.6118 21.4462 28.6118ZM21.4462 27.1743C23.504 27.1743 25.3959 26.6512 27.1221 25.605C28.8482 24.5589 30.1619 23.1653 31.0632 21.4243C30.1619 19.6833 28.8482 18.2898 27.1221 17.2436C25.3959 16.1974 23.504 15.6743 21.4462 15.6743C19.3885 15.6743 17.4966 16.1974 15.7704 17.2436C14.0443 18.2898 12.7221 19.6833 11.8037 21.4243C12.7221 23.1653 14.0443 24.5589 15.7704 25.605C17.4966 26.6512 19.3885 27.1743 21.4462 27.1743Z" fill="#525252"/>
</svg>
