<svg width="25" height="24" viewBox="0 0 25 24" fill="none" xmlns="http://www.w3.org/2000/svg">
<g clip-path="url(#clip0_984_4066)">
<path fill-rule="evenodd" clip-rule="evenodd" d="M0.861328 12.067C0.861328 18.033 5.19433 22.994 10.8613 24V15.333H7.86133V12H10.8613V9.333C10.8613 6.333 12.7943 4.667 15.5283 4.667C16.3943 4.667 17.3283 4.8 18.1943 4.933V8H16.6613C15.1943 8 14.8613 8.733 14.8613 9.667V12H18.0613L17.5283 15.333H14.8613V24C20.5283 22.994 24.8613 18.034 24.8613 12.067C24.8613 5.43 19.4613 0 12.8613 0C6.26133 0 0.861328 5.43 0.861328 12.067Z" fill="#B8B8B8"/>
</g>
<defs>
<clipPath id="clip0_984_4066">
<rect width="24" height="24" fill="white" transform="translate(0.861328)"/>
</clipPath>
</defs>
</svg>
