<svg width="80" height="82" viewBox="0 0 80 82" fill="none" xmlns="http://www.w3.org/2000/svg">
<g clip-path="url(#clip0_984_1441)">
<circle cx="40" cy="41" r="40.5" stroke="#292929" stroke-dasharray="2 2"/>
<circle cx="40" cy="41" r="40.5" stroke="#292929" stroke-dasharray="2 2"/>
<path d="M28.7971 24.64V36H26.9891V30.992H21.2611V36H19.4691V24.64H21.2611V29.392H26.9891V24.64H28.7971ZM32.1597 36V24.64H33.9517V36H32.1597ZM37.3191 36V24.64H42.2631C42.7751 24.64 43.2444 24.7467 43.6711 24.96C44.0977 25.1733 44.4657 25.456 44.7751 25.808C45.0951 26.16 45.3404 26.5547 45.5111 26.992C45.6924 27.4293 45.7831 27.8773 45.7831 28.336C45.7831 28.8373 45.6924 29.3173 45.5111 29.776C45.3297 30.2347 45.0684 30.6293 44.7271 30.96C44.3964 31.2907 44.0071 31.5307 43.5591 31.68L46.2311 36H44.2151L41.7511 32.048H39.1111V36H37.3191ZM39.1111 30.464H42.2471C42.5777 30.464 42.8711 30.368 43.1271 30.176C43.3831 29.984 43.5857 29.728 43.7351 29.408C43.8844 29.0773 43.9591 28.72 43.9591 28.336C43.9591 27.9413 43.8737 27.5893 43.7031 27.28C43.5324 26.96 43.3084 26.704 43.0311 26.512C42.7644 26.32 42.4711 26.224 42.1511 26.224H39.1111V30.464ZM56.4892 34.416V36H48.6972V24.64H56.3452V26.224H50.4892V29.456H55.5612V30.944H50.4892V34.416H56.4892ZM21.9361 49.968V58H20.1441V46.64H21.6161L28.0481 54.848V46.656H29.8561V58H28.2881L21.9361 49.968ZM37.9297 58.08C37.1084 58.08 36.367 57.92 35.7057 57.6C35.0444 57.28 34.4737 56.848 33.9937 56.304C33.5137 55.7493 33.1404 55.1307 32.8737 54.448C32.6177 53.7547 32.4897 53.0453 32.4897 52.32C32.4897 51.5627 32.6284 50.8427 32.9057 50.16C33.183 49.4667 33.567 48.8533 34.0577 48.32C34.5484 47.776 35.1244 47.3493 35.7857 47.04C36.4577 46.72 37.183 46.56 37.9617 46.56C38.7724 46.56 39.5084 46.7253 40.1697 47.056C40.8417 47.3867 41.4124 47.8293 41.8817 48.384C42.3617 48.9387 42.7297 49.5573 42.9857 50.24C43.2524 50.9227 43.3857 51.6213 43.3857 52.336C43.3857 53.0933 43.247 53.8187 42.9697 54.512C42.703 55.1947 42.3244 55.808 41.8337 56.352C41.343 56.8853 40.7617 57.3067 40.0897 57.616C39.4284 57.9253 38.7084 58.08 37.9297 58.08ZM34.3137 52.32C34.3137 52.8533 34.399 53.3707 34.5697 53.872C34.7404 54.3733 34.9804 54.8213 35.2897 55.216C35.6097 55.6 35.9937 55.904 36.4417 56.128C36.8897 56.352 37.391 56.464 37.9457 56.464C38.5217 56.464 39.0337 56.3467 39.4817 56.112C39.9297 55.8773 40.303 55.5627 40.6017 55.168C40.911 54.7627 41.1457 54.3147 41.3057 53.824C41.4657 53.3227 41.5457 52.8213 41.5457 52.32C41.5457 51.7867 41.4604 51.2747 41.2897 50.784C41.1297 50.2827 40.8897 49.84 40.5697 49.456C40.2497 49.0613 39.8657 48.752 39.4177 48.528C38.9804 48.304 38.4897 48.192 37.9457 48.192C37.3697 48.192 36.8577 48.3093 36.4097 48.544C35.9617 48.7787 35.583 49.0933 35.2737 49.488C34.9644 49.8827 34.7244 50.3253 34.5537 50.816C34.3937 51.3067 34.3137 51.808 34.3137 52.32ZM49.6354 46.688H51.3154L52.7234 50.544L54.1474 46.688H55.8274L53.8754 51.744L55.5714 55.92L59.1074 46.64H61.0754L56.4194 58H54.8674L52.7394 52.912L50.5954 58H49.0274L44.3874 46.64H46.3394L49.8914 55.92L51.5874 51.744L49.6354 46.688Z" fill="#292929"/>
</g>
<path d="M78 40V42H82V40H78ZM2 42V40H-2V42H2ZM40 80C19.0132 80 2 62.9868 2 42H-2C-2 65.196 16.804 84 40 84V80ZM78 42C78 62.9868 60.9868 80 40 80V84C63.196 84 82 65.196 82 42H78ZM40 2C60.9868 2 78 19.0132 78 40H82C82 16.804 63.196 -2 40 -2V2ZM40 -2C16.804 -2 -2 16.804 -2 40H2C2 19.0132 19.0132 2 40 2V-2Z" fill="#292929"/>
<defs>
<clipPath id="clip0_984_1441">
<path d="M0 40C0 17.9086 17.9086 0 40 0V0C62.0914 0 80 17.9086 80 40V42C80 64.0914 62.0914 82 40 82V82C17.9086 82 0 64.0914 0 42V40Z" fill="white"/>
</clipPath>
</defs>
</svg>
