<svg width="87" height="87" viewBox="0 0 87 87" fill="none" xmlns="http://www.w3.org/2000/svg">
<circle cx="43.0699" cy="43.0698" r="42" transform="rotate(89.9069 43.0699 43.0698)" stroke="#36BE21" stroke-width="2" stroke-dasharray="4 4"/>
<g clip-path="url(#clip0_912_8256)">
<path d="M62.4572 40.8932C62.327 41.5999 62.2258 42.2501 62.0668 42.9144C61.5418 45.2404 60.4818 47.4191 58.9673 49.2852C57.4527 51.1513 55.5233 52.6559 53.3254 53.6847C50.6197 55.0204 47.5877 55.5955 44.5672 55.3459C41.5468 55.0963 38.6566 54.0319 36.2187 52.2713L35.7415 51.925L33.8616 53.7342C33.872 53.7578 33.8867 53.7793 33.905 53.7978C34.6786 54.5964 34.6786 55.0345 33.905 55.8049C31.9022 57.7625 29.8922 59.7201 27.8967 61.6847C27.3628 62.3238 26.6638 62.8118 25.8722 63.0982H24.8383C23.6742 62.7236 22.9367 61.819 22.1631 60.978C21.7857 60.533 21.5791 59.973 21.5791 59.395C21.5791 58.8169 21.7857 58.257 22.1631 57.8119C22.3077 57.6423 22.4595 57.4727 22.6186 57.3172C24.7395 55.2159 26.8676 53.1193 29.0029 51.0275C29.791 50.2501 30.2248 50.243 31.0563 50.9921C31.0752 51.01 31.0972 51.0244 31.1213 51.0345L32.9578 49.2183C32.618 48.7094 32.2348 48.1723 31.8661 47.607C30.0579 44.8072 29.2352 41.5066 29.5235 38.2077C30.1163 31.6493 33.529 26.9638 39.7109 24.3066C42.2471 23.2257 45.0363 22.8398 47.7798 23.19C50.3665 23.4421 52.8532 24.2987 55.0301 25.6873C57.2071 27.076 59.0105 28.956 60.2881 31.1688C61.4357 33.0624 62.1486 35.1772 62.3777 37.3667C62.3942 37.4519 62.4209 37.5349 62.4572 37.614V38.1653C62.2258 38.3702 62.0306 38.6246 61.6474 38.4903C61.2642 38.3561 61.2425 38.038 61.1991 37.7342C61.1557 37.4303 61.1413 37.1122 61.0834 36.8013C60.5595 33.6202 58.9851 30.694 56.6007 28.4691C53.9679 25.9561 50.4801 24.4792 46.8037 24.3207C44.0417 24.1254 41.2806 24.7118 38.8505 26.0098C36.504 27.1821 34.5169 28.9406 33.0908 31.1065C31.6647 33.2725 30.8505 35.7688 30.7309 38.3419C30.4982 41.1054 31.115 43.8738 32.5023 46.2925C33.6672 48.4701 35.3763 50.3247 37.4709 51.6838C39.5654 53.0429 41.9774 53.8624 44.4828 54.0663C47.0589 54.3637 49.6694 53.9754 52.0384 52.9427C54.2017 52.0566 56.1218 50.6861 57.6439 48.9418C59.166 47.1975 60.2476 45.128 60.8015 42.9002C60.9695 42.2201 61.0974 41.5311 61.1847 40.8366C61.2714 40.2854 61.5317 40.0027 61.9511 40.1299C62.1391 40.1794 62.2909 40.3773 62.4572 40.5115V40.8932ZM30.0079 51.7624C27.7376 53.9745 25.4384 56.2006 23.1609 58.4409C22.9083 58.6886 22.7665 59.0241 22.7665 59.3738C22.7665 59.7235 22.9083 60.0589 23.1609 60.3066C23.4718 60.6459 23.8116 60.9568 24.1369 61.2819C24.9829 62.1017 25.7204 62.1017 26.5735 61.2819L32.8855 55.1052C32.9795 55.0204 33.0663 54.9215 33.1386 54.8437L30.0079 51.7624ZM32.0902 51.9038L32.9723 52.7519L34.6569 51.1264L33.7965 50.243L32.0902 51.9038Z" fill="#525252"/>
<path d="M46.0011 53.19C43.1786 53.1956 40.4177 52.3831 38.0676 50.8551C35.7175 49.3272 33.8837 47.1524 32.7979 44.6059C31.7122 42.0593 31.4233 39.2552 31.9678 36.5482C32.5123 33.8412 33.8658 31.3527 35.8571 29.3975C37.8483 27.4422 40.388 26.108 43.155 25.5634C45.922 25.0189 48.792 25.2884 51.4023 26.3381C54.0125 27.3877 56.2458 29.1702 57.8197 31.4603C59.3936 33.7505 60.2375 36.4453 60.2446 39.2041C60.2503 41.037 59.8863 42.853 59.1733 44.5482C58.4603 46.2434 57.4124 47.7846 56.0895 49.0836C54.7665 50.3826 53.1946 51.4139 51.4635 52.1185C49.7325 52.8231 47.8762 53.1872 46.0011 53.19V53.19ZM46.0011 26.4762C43.4365 26.4705 40.9271 27.2036 38.7863 28.5837C36.6454 29.9639 34.9681 31.9299 33.9636 34.2364C32.9592 36.5429 32.6723 39.0874 33.1387 41.5523C33.6052 44.0172 34.8042 46.2932 36.5862 48.0959C38.3681 49.8987 40.654 51.1482 43.1583 51.6886C45.6625 52.229 48.2741 52.0363 50.667 51.1344C53.0598 50.2325 55.1277 48.6616 56.6125 46.6177C58.0973 44.5739 58.9331 42.1477 59.0155 39.6423C59.0766 37.9359 58.7857 36.2349 58.16 34.6407C57.5343 33.0465 56.5867 31.5918 55.3735 30.3631C54.1604 29.1345 52.7067 28.1572 51.099 27.4894C49.4912 26.8216 47.7624 26.4771 46.0155 26.4762H46.0011Z" fill="#36BE21"/>
<path d="M38.1997 46.4903H40.4411C40.4411 46.1935 40.4411 45.8967 40.4411 45.6069C40.4409 45.4247 40.4554 45.2428 40.4845 45.0628C40.4991 44.924 40.5685 44.7963 40.6778 44.7066C40.7871 44.6169 40.9278 44.5723 41.0701 44.5822C41.2062 44.576 41.3396 44.6209 41.4431 44.7075C41.5465 44.7942 41.6123 44.9162 41.6269 45.0486C41.6702 45.3808 41.663 45.72 41.6775 46.0522C41.6775 46.1935 41.6775 46.3349 41.6775 46.5115H43.7525C44.0418 46.5115 44.3382 46.5115 44.6274 46.5115C44.702 46.5105 44.7761 46.5244 44.8451 46.5523C44.914 46.5801 44.9765 46.6215 45.0286 46.6737C45.0807 46.7259 45.1213 46.788 45.1481 46.8561C45.1748 46.9242 45.1871 46.9969 45.1841 47.0698C45.1944 47.2154 45.1467 47.3591 45.051 47.4711C44.9553 47.583 44.8191 47.6545 44.6708 47.6706C44.5649 47.6777 44.4586 47.6777 44.3527 47.6706H38.1997C38.0334 47.6906 37.8646 47.6737 37.7059 47.6211C37.5471 47.5685 37.4026 47.4815 37.2831 47.3667C37.1635 47.2519 37.072 47.1122 37.0154 46.958C36.9588 46.8038 36.9385 46.6391 36.9561 46.4762C36.932 45.7101 36.9513 44.9434 37.014 44.1794C37.0759 43.5483 37.3202 42.9474 37.7184 42.4468C38.1165 41.9463 38.6521 41.5668 39.2626 41.3525C40.5857 40.8083 41.9305 40.3207 43.2609 39.8048C43.3424 39.7771 43.4152 39.7292 43.4721 39.6658C43.529 39.6024 43.5681 39.5256 43.5856 39.443C43.6031 39.3604 43.5983 39.2748 43.5718 39.1945C43.5453 39.1143 43.498 39.0421 43.4344 38.985C42.7782 38.4303 42.3156 37.6891 42.1113 36.8649C42.1113 36.7589 41.9305 36.6529 41.8148 36.6105C41.5418 36.524 41.2933 36.3762 41.0893 36.1789C40.8853 35.9816 40.7314 35.7403 40.64 35.4744C40.5486 35.2085 40.5223 34.9253 40.5631 34.6477C40.6039 34.37 40.7107 34.1055 40.8749 33.8755C40.9755 33.6962 41.023 33.4931 41.0123 33.2889C40.9459 32.2742 41.1294 31.2588 41.5473 30.3278C42.0117 29.4049 42.762 28.6487 43.6914 28.1666C44.6207 27.6844 45.682 27.501 46.7242 27.6423C47.7708 27.7881 48.7421 28.258 49.4955 28.983C50.249 29.708 50.7449 30.6499 50.9105 31.6705C50.9972 32.2359 50.9611 32.8154 50.9972 33.3808C51.0103 33.5434 51.0623 33.7008 51.1491 33.8401C51.3178 34.0715 51.4286 34.3382 51.4727 34.619C51.5168 34.8998 51.4929 35.1868 51.4029 35.4569C51.3129 35.7271 51.1593 35.9728 50.9545 36.1743C50.7497 36.3759 50.4993 36.5277 50.2236 36.6175C50.1458 36.652 50.0761 36.7019 50.0189 36.7639C49.9617 36.8259 49.9181 36.8988 49.891 36.978C49.6915 37.7249 49.2686 38.3966 48.6763 38.9073C48.2642 39.2818 48.3293 39.614 48.8354 39.8331L52.653 41.296C53.3808 41.5458 54.0078 42.0167 54.4423 42.6397C54.8768 43.2628 55.096 44.0054 55.0679 44.7589C55.0679 45.3455 55.0679 45.932 55.0679 46.5186C55.0738 46.6715 55.0477 46.824 54.9913 46.9667C54.9348 47.1094 54.8491 47.2393 54.7394 47.3485C54.6297 47.4576 54.4984 47.5438 54.3535 47.6016C54.2086 47.6594 54.0531 47.6877 53.8966 47.6847C51.7637 47.6847 49.638 47.6847 47.505 47.6847C47.4192 47.6959 47.3319 47.6889 47.2491 47.664C47.1664 47.6392 47.0901 47.5971 47.0255 47.5407C46.9609 47.4843 46.9096 47.4149 46.8751 47.3373C46.8405 47.2597 46.8236 47.1757 46.8254 47.091C46.8254 46.7306 47.0785 46.5186 47.5484 46.5115C48.4667 46.5115 49.3849 46.5115 50.3754 46.5115V45.3455C50.3754 44.8578 50.5996 44.5751 50.9683 44.5751C51.3371 44.5751 51.5757 44.8649 51.5757 45.3384C51.5757 45.8119 51.5757 46.0875 51.5757 46.4903H53.8966C53.8532 45.5645 54.0484 44.6317 53.6869 43.7341C53.5697 43.4414 53.3907 43.1762 53.1614 42.9558C52.9322 42.7353 52.6579 42.5647 52.3565 42.455C51.1419 41.9815 49.9127 41.5221 48.698 41.0416C48.6051 40.9967 48.4993 40.9841 48.3981 41.006C48.2968 41.0278 48.2063 41.0828 48.1413 41.1617C47.628 41.6281 47.0929 42.0804 46.5579 42.5327C46.1602 42.8649 45.9433 42.8649 45.5384 42.5327C44.9817 42.0734 44.4467 41.5857 43.8827 41.1193C43.82 41.0746 43.7477 41.0444 43.6713 41.0309C43.5949 41.0174 43.5164 41.0211 43.4416 41.0416C42.198 41.4939 40.9544 41.9532 39.7325 42.455C39.2881 42.6009 38.9014 42.8789 38.6265 43.2502C38.3517 43.6214 38.2025 44.0674 38.1997 44.5257C38.1491 45.1758 38.1997 45.819 38.1997 46.4903ZM43.2609 33.7059C43.2609 34.5186 43.2609 35.3454 43.2609 36.1723C43.299 36.85 43.5961 37.4889 44.0935 37.9625C44.5908 38.4361 45.252 38.7098 45.9461 38.7294C46.6401 38.7489 47.3164 38.5129 47.8408 38.0681C48.3653 37.6233 48.6996 37.0022 48.7776 36.3278C48.8282 35.6211 48.7776 34.9143 48.8354 34.2712C48.8782 33.9644 48.8387 33.652 48.7208 33.3646C48.6029 33.0772 48.4107 32.8246 48.163 32.6317C48.1015 32.5625 48.0171 32.5167 47.9244 32.5025C47.8318 32.4883 47.7371 32.5065 47.6569 32.5539C46.8086 32.9124 45.9423 33.2285 45.0612 33.5009C44.4491 33.6217 43.8273 33.6903 43.2031 33.7059H43.2609ZM49.7681 32.6034C49.7849 32.0915 49.6927 31.5817 49.4972 31.1065C49.3018 30.6313 49.0075 30.2009 48.6329 29.8427C48.2583 29.4846 47.8117 29.2064 47.3213 29.0259C46.8309 28.8454 46.3075 28.7665 45.7842 28.7942C44.8117 28.8382 43.8967 29.2571 43.2395 29.9591C42.5822 30.6611 42.2364 31.5891 42.2776 32.5398C42.3624 32.5097 42.4494 32.4861 42.5379 32.4691C42.6436 32.4584 42.7502 32.4584 42.856 32.4691C44.4833 32.5822 46.1031 32.1646 47.4617 31.2818C47.5402 31.2071 47.6351 31.1507 47.7392 31.1171C47.8433 31.0835 47.9539 31.0734 48.0626 31.0877C48.1712 31.102 48.2752 31.1403 48.3665 31.1996C48.4578 31.259 48.5341 31.3378 48.5896 31.4302C48.9583 31.7907 49.3198 32.1723 49.7681 32.6034ZM47.2014 39.8189H44.7069C44.7576 40.0027 44.7503 40.2854 44.8877 40.4409C45.2458 40.7967 45.6248 41.1318 46.0228 41.4444C46.3482 40.8013 47.3677 40.7377 47.2014 39.8189ZM41.9522 34.5115C41.89 34.5671 41.8402 34.6348 41.8062 34.7103C41.7722 34.7857 41.7547 34.8672 41.7547 34.9497C41.7547 35.0321 41.7722 35.1137 41.8062 35.1891C41.8402 35.2645 41.89 35.3322 41.9522 35.3878V34.5115ZM50.0139 34.4267V35.3666C50.0789 35.3059 50.1306 35.233 50.1659 35.1522C50.2012 35.0715 50.2195 34.9845 50.2195 34.8967C50.2195 34.8088 50.2012 34.7219 50.1659 34.6411C50.1306 34.5604 50.0789 34.4874 50.0139 34.4267Z" fill="#36BE21"/>
</g>
<defs>
<clipPath id="clip0_912_8256">
<rect width="48.4616" height="40.0001" fill="white" transform="translate(18.3394 23.0698)"/>
</clipPath>
</defs>
</svg>
