<svg width="80" height="64" viewBox="0 0 80 64" fill="none" xmlns="http://www.w3.org/2000/svg">
<g clip-path="url(#clip0_912_8205)">
<path d="M30.1664 28.9557C30.1491 35.8054 30.1491 42.6378 30.1664 49.4703C30.1664 49.8854 30.0626 50.0238 29.6302 50.0065C28.5405 49.9892 27.4507 49.9719 26.361 50.0065C25.8075 50.0238 25.6345 49.8854 25.6345 49.3146C25.6691 45.9589 25.6518 42.5859 25.6518 39.2303C25.6518 35.84 25.6691 32.4497 25.6345 29.0768C25.6345 28.5751 25.7383 28.4195 26.2745 28.4368C27.3815 28.4713 28.5059 28.4713 29.6129 28.4368C30.0107 28.4368 30.1664 28.5059 30.1664 28.9557Z" fill="white"/>
<path d="M46.2357 52.1686C46.2184 55.8876 46.2184 59.6238 46.2357 63.3427C46.2357 63.8443 45.9936 63.8097 45.6476 63.8097H0.034668C0.380614 63.533 0.795749 63.6022 1.19359 63.6022H44.852C46.0455 63.6022 46.0455 63.6022 46.0455 62.3913V52.9816C46.0455 51.9611 45.9763 51.9092 44.9557 51.9092C44.5406 51.9092 44.1428 51.8919 43.7276 51.9092C43.0357 51.9265 42.9493 51.9957 42.9493 52.7049C42.932 54.7978 42.9493 56.8908 42.9493 58.9838C42.9493 60.4368 42.8974 60.5059 41.4617 60.5059H4.41088C3.51142 60.4713 3.35575 60.3157 3.33845 59.3989V4.99892C3.33845 3.35568 3.33845 3.33838 5.01629 3.33838H41.306C42.9147 3.33838 42.9493 3.37297 42.9493 4.98162V25.3059C42.9666 26.0151 43.0357 26.1016 43.7276 26.1189C44.2466 26.1362 44.7655 26.1189 45.3017 26.1189C45.8379 26.1189 46.0628 25.9286 46.0455 25.3924C46.0282 25.1157 46.0455 24.8389 46.0455 24.5795V1.24541C46.0628 0.83027 45.9763 0.380541 46.2703 0C46.253 0.276757 46.2357 0.536216 46.2357 0.812973C46.2357 9.06378 46.2357 17.3146 46.253 25.5654C46.253 26.2054 46.0801 26.3957 45.4574 26.3611C44.7309 26.3092 44.0044 26.3092 43.2779 26.3611C42.8282 26.3784 42.7071 26.2573 42.7071 25.8076C42.7417 24.4065 42.7244 22.9881 42.7244 21.587C42.7244 15.8097 42.7071 10.0497 42.7417 4.27243C42.7417 3.64973 42.5514 3.54595 41.9806 3.54595C29.4055 3.56324 16.8303 3.56324 4.25521 3.54595C3.70169 3.54595 3.54602 3.66703 3.54602 4.23784C3.56332 22.7114 3.56332 41.1849 3.54602 59.6584C3.54602 60.1946 3.6844 60.333 4.22061 60.333C16.813 60.3157 29.4228 60.3157 42.0152 60.333C42.6552 60.333 42.7417 60.1254 42.7417 59.5719C42.7071 57.1676 42.7417 54.7459 42.7244 52.3416C42.7244 51.84 42.8109 51.6151 43.3817 51.6497C44.1601 51.6843 44.9211 51.6843 45.6995 51.6497C46.0801 51.6151 46.253 51.7362 46.2357 52.1686Z" fill="white"/>
<path d="M44.2985 38.6595C43.9179 38.4519 44.1255 38.3481 44.3158 38.1924C46.4952 36.48 46.9277 32.7092 45.2152 30.4951C44.1255 29.0768 42.5342 28.6616 40.8909 28.5405C38.3482 28.333 35.8055 28.5059 33.2628 28.4541C32.7612 28.4368 32.6228 28.5578 32.6228 29.0768C32.6401 32.467 32.6401 35.84 32.6401 39.2303C32.6401 42.6205 32.6574 45.9935 32.6228 49.3838C32.6228 49.8681 32.7093 50.0411 33.2455 50.0411C35.4423 50.0065 37.6563 50.0238 39.8531 50.0238C41.0293 50.0411 42.2055 49.8681 43.3298 49.5222C45.0942 48.9513 46.1839 47.7578 46.6682 45.9762C46.7893 45.5438 46.8758 45.0941 46.9104 44.6443C47.0142 42.2054 46.6682 39.9741 44.2985 38.6595ZM37.1201 32.6054C37.1201 32.3113 37.2066 32.2076 37.5179 32.2249C38.3136 32.2422 39.1093 32.2076 39.905 32.2768C41.012 32.3805 41.4963 32.7957 41.6866 33.8854C41.9979 35.5632 41.4098 36.8259 39.4379 36.8086C38.7979 36.8086 38.1752 36.7914 37.5352 36.8086C37.2412 36.8086 37.1374 36.7222 37.1374 36.4281C37.1374 35.8054 37.1374 35.1654 37.1374 34.5254C37.1201 33.8854 37.1374 33.2454 37.1201 32.6054ZM42.3958 44.2811C42.1536 45.4919 41.4271 46.0973 40.0779 46.1838C39.2131 46.253 38.3482 46.2011 37.4833 46.2184C37.1547 46.2184 37.1201 46.08 37.1201 45.8032C37.1374 44.9903 37.1201 44.1773 37.1201 43.3643V41.0465C37.1201 40.7697 37.1374 40.5795 37.5006 40.5968C38.452 40.6313 39.4033 40.5968 40.3547 40.6486C41.3579 40.7178 42.0325 41.2714 42.3266 42.2573C42.5169 42.9146 42.5515 43.6065 42.3958 44.2811Z" fill="white"/>
<path d="M51.4248 29.4054C51.4248 29.0249 51.5286 28.9211 51.9091 28.9038C53.2237 28.8865 53.2237 28.8692 53.2237 30.2011C53.2237 32.6746 53.2064 35.1481 53.241 37.6216C53.241 38.1232 53.1372 38.2789 52.6183 38.2616C51.4421 38.227 51.4248 38.2616 51.4248 37.0854V33.5568C51.4421 32.173 51.4421 30.7892 51.4248 29.4054Z" fill="white"/>
<path d="M56.0604 45.0422C57.0464 44.1427 57.0637 43.0876 56.7004 41.9978C56.3545 40.96 55.455 40.7524 54.5037 40.7005C53.6215 40.6486 52.7394 40.6832 51.8399 40.6659C51.5113 40.6486 51.4075 40.7697 51.4075 41.0984C51.4248 43.9351 51.4248 46.7719 51.4075 49.6086C51.4075 49.9892 51.5458 50.0584 51.8918 50.0584C52.7913 50.0411 53.708 50.0584 54.6248 50.0411C55.9221 50.0065 56.7523 49.4357 57.0464 48.4324C57.4442 47.0832 57.081 45.7859 56.0604 45.0422ZM53.2237 43.3124C53.3102 42.88 52.9469 42.24 53.8637 42.3265C54.7804 42.413 55.0745 42.6032 55.0918 43.3124C55.1091 44.0562 54.7631 44.2811 53.8464 44.333C52.8258 44.3849 53.3794 43.6584 53.2237 43.3124ZM54.2442 48.3978C54.0885 48.4151 53.9156 48.3805 53.7599 48.3978C53.2929 48.467 53.1545 48.2595 53.2064 47.827C53.2237 47.6022 53.2237 47.3773 53.2064 47.1524C53.2064 47.1005 53.1891 47.0486 53.2064 47.0141C53.3967 46.6681 52.7394 45.9416 53.7253 45.9416C54.9361 45.9416 55.2994 46.1838 55.3513 47.0832C55.4031 47.9135 55.0399 48.3459 54.2442 48.3978Z" fill="white"/>
<path d="M59.7104 29.6822C59.7104 28.4713 59.7104 28.4886 58.4823 28.4886C58.0671 28.4886 57.9979 28.6443 58.0152 29.0076C58.0325 30.0108 58.0152 30.9968 58.0152 32.1038C56.7871 30.7892 55.6282 30.7546 54.8152 31.9308C53.812 33.3492 53.8293 36.2205 54.8498 37.6216C55.6109 38.6595 56.8217 38.7113 57.6866 37.7427C57.7731 37.6389 57.7731 37.4313 58.0498 37.4832C57.8077 38.1924 58.1882 38.3135 58.7763 38.2443C58.8628 38.227 58.9666 38.227 59.0531 38.2443C59.5893 38.3308 59.7277 38.1059 59.7277 37.5697C59.6931 34.9578 59.7104 32.3286 59.7104 29.6822ZM57.7212 36.2551C57.6001 36.5838 57.2715 36.8086 56.9082 36.7913C56.5277 36.7913 56.199 36.5665 56.0606 36.2032C55.8704 35.7362 55.7839 35.2346 55.8012 34.733C55.7666 34.2313 55.8531 33.7297 56.0606 33.28C56.199 32.934 56.545 32.7092 56.9082 32.7265C57.2542 32.7265 57.5828 32.934 57.7039 33.28C58.1363 34.2313 58.1363 35.3038 57.7212 36.2551Z" fill="white"/>
<path d="M62.0801 44.8346C60.4368 44.5578 59.9352 44.9557 59.8833 46.6508C59.8487 47.6022 59.8487 48.5535 59.8833 49.5049C59.8833 49.9027 59.8141 50.0584 59.3644 50.0584C58.1709 50.0584 58.1709 50.0757 58.1709 48.8995C58.1709 47.1524 58.1882 45.4054 58.1536 43.6584C58.1536 43.1567 58.2573 42.9146 58.7763 43.0184C58.7936 43.0184 58.8282 43.0184 58.8455 43.0184C59.7795 43.0184 59.7795 43.0184 59.9525 43.9178C60.333 43.3297 60.7828 42.8973 61.4746 42.8454C61.8898 42.8108 62.1319 42.8973 62.0801 43.3989C62.0628 43.8832 62.0801 44.3503 62.0801 44.8346Z" fill="white"/>
<path d="M62.6682 35.3384C63.6368 35.373 64.6228 35.3384 65.5914 35.3557C65.9201 35.3557 66.0758 35.3038 66.0758 34.9232C66.0585 34.1449 66.0239 33.4011 65.6779 32.6746C65.2109 31.6886 64.5017 31.0832 63.3601 31.0832C62.1839 31.0832 61.3709 31.6022 60.852 32.64C60.4368 33.4703 60.4196 34.3351 60.4541 35.2346C60.5579 37.587 62.0282 38.7633 64.3633 38.3308C65.7644 38.0714 65.8336 38.0022 65.8163 36.6184C65.8163 36.48 65.799 36.3589 65.799 36.1514C65.1763 36.5146 64.5882 36.8432 63.8963 36.9124C63.0833 37.0162 62.4606 36.6357 62.2531 35.9092C62.1493 35.5632 62.1666 35.3211 62.6682 35.3384ZM62.8585 32.7265C63.2909 32.467 63.8444 32.6054 64.1039 33.0205C64.2596 33.28 64.4152 33.5741 64.2942 33.8508C64.1731 34.1276 63.8444 33.9373 63.6196 33.9719C63.4985 33.9892 63.3947 33.9892 63.2736 33.9719C63.2217 33.9719 63.1871 33.9719 63.1352 33.9719C62.8412 33.8854 62.3568 34.1795 62.2704 33.7816C62.1839 33.3838 62.4433 32.9514 62.8585 32.7265Z" fill="white"/>
<path d="M64.2077 47.1524C65.1936 47.187 66.1623 47.1524 67.1482 47.1697C67.5461 47.187 67.719 47.1005 67.7017 46.6508C67.6844 46.0627 67.598 45.4746 67.4596 44.9038C67.0444 43.5719 66.1277 42.8281 64.9169 42.8454C63.6542 42.8627 62.6682 43.6238 62.2704 44.9038C62.0455 45.7168 61.9936 46.5643 62.0974 47.3946C62.3569 49.453 63.7925 50.5254 65.8336 50.1449C67.3904 49.8508 67.4596 49.7643 67.425 48.2076C67.425 48.1384 67.4077 48.0692 67.4077 47.9308C67.0963 48.1038 66.8715 48.2422 66.6293 48.3632C66.3698 48.4843 66.0758 48.5881 65.799 48.6573C64.7785 48.8821 64.1212 48.5362 63.8617 47.6713C63.7407 47.2908 63.7753 47.1524 64.2077 47.1524ZM64.3115 44.5751C64.6401 44.333 65.0034 44.2465 65.3839 44.4886C65.7644 44.7135 65.8682 45.0767 65.9201 45.4573C65.9547 45.6476 65.8855 45.7513 65.6607 45.7513C65.3839 45.7513 65.1244 45.7513 64.8477 45.7513C64.7958 45.7513 64.7612 45.7513 64.7093 45.7513C64.4153 45.6822 63.9309 45.9589 63.8271 45.5611C63.7407 45.2151 63.9828 44.8173 64.3115 44.5751Z" fill="white"/>
<path d="M71.7664 34.0411C71.7145 31.7924 70.8324 30.9795 68.5837 31.0832C68.4972 31.0832 68.4107 31.0832 68.307 31.1005C66.9059 31.2389 66.8713 31.2562 66.8886 32.6746V33.107C67.6151 32.6919 68.2897 32.5189 69.0161 32.5708C69.241 32.5708 69.4659 32.64 69.6561 32.7611C69.9502 32.9168 70.0886 33.2627 70.0021 33.5741C69.9156 33.8854 69.6215 33.7124 69.414 33.7297C69.0161 33.7816 68.601 33.7643 68.1859 33.8162C67.2172 33.9546 66.6291 34.56 66.4734 35.4941C66.2832 36.6703 66.6637 37.7946 67.4421 38.2097C67.8399 38.4173 68.3243 38.4692 68.7567 38.3654C69.2929 38.2443 69.6043 37.8119 70.054 37.3622C69.8637 38.1924 70.2442 38.3308 70.8151 38.2443C70.9361 38.227 71.0399 38.227 71.161 38.2443C71.628 38.3135 71.7837 38.1232 71.7664 37.6562C71.7491 36.4627 71.801 35.2519 71.7664 34.0411ZM70.054 35.5286C70.0021 36.2897 69.5351 36.947 68.947 36.9297C68.3589 36.9124 68.1686 36.5319 68.1686 36.013C68.1686 35.3557 68.5491 35.0962 69.6388 35.0789C69.7772 35.0789 70.0886 35.0097 70.054 35.5286Z" fill="white"/>
<path d="M70.2961 47.1524C71.2648 47.187 72.2507 47.1524 73.2194 47.1697C73.5653 47.1697 73.7037 47.1005 73.7037 46.72C73.721 46.0108 73.5999 45.3189 73.375 44.6443C72.9253 43.4681 72.0431 42.8281 70.9188 42.8281C69.7253 42.8454 68.8258 43.4854 68.3761 44.627C68.0302 45.4919 68.0302 46.3913 68.1167 47.3081C68.3242 49.3665 69.7426 50.4735 71.7837 50.1449C73.3577 49.8854 73.4788 49.747 73.4442 48.1903C73.4442 48.1211 73.4269 48.0519 73.4096 47.8962C72.6658 48.3459 71.974 48.7265 71.1264 48.6919C70.4691 48.6573 70.0885 48.3286 69.881 47.7232C69.7426 47.3254 69.7772 47.1351 70.2961 47.1524ZM71.0572 44.3503C71.5069 44.4195 71.974 45.0249 71.9567 45.4919C71.9394 45.7168 71.8183 45.7513 71.6453 45.7513H70.815C70.7977 45.7513 70.7631 45.7513 70.7458 45.7513C70.4691 45.613 69.8983 46.0973 69.881 45.4227C69.8637 44.8173 70.5037 44.2811 71.0572 44.3503Z" fill="white"/>
<path d="M79.7058 41.3232C79.7058 40.2681 79.7058 40.2854 78.6161 40.2681C78.1318 40.2508 77.9934 40.4065 78.0107 40.8735C78.0453 41.8422 78.028 42.8108 78.028 43.7622C77.7858 43.7967 77.7685 43.6238 77.6821 43.5373C76.7653 42.5513 75.5718 42.6205 74.8107 43.7276C73.8247 45.1459 73.842 48.0346 74.8626 49.4184C75.2604 50.0238 75.9869 50.3351 76.6961 50.1795C77.2669 50.0757 77.5956 49.6432 78.0799 49.107C77.8377 50.0757 78.3221 50.1103 78.8929 50.0411C78.9448 50.0411 78.9794 50.0411 79.0312 50.0411C79.6021 50.1449 79.7231 49.92 79.7231 49.3492C79.6885 46.6854 79.7058 44.0043 79.7058 41.3232ZM77.7512 48C77.6302 48.3632 77.2842 48.5881 76.9037 48.5708C76.4885 48.5708 76.2291 48.3286 76.0734 47.9827C75.8485 47.5157 75.8658 47.0141 75.8485 46.5124C75.8658 46.0281 75.8658 45.5611 76.0734 45.1113C76.2464 44.7654 76.5058 44.5059 76.9037 44.5059C77.2842 44.4886 77.6302 44.7135 77.7512 45.0768C78.1318 46.0108 78.1318 47.0486 77.7512 48Z" fill="white"/>
<path d="M42.707 25.8076C42.7416 24.4065 42.7243 22.9881 42.7243 21.587C42.7243 15.8097 42.707 10.0497 42.7416 4.27243C42.7416 3.64973 42.5513 3.54595 41.9805 3.54595C29.4054 3.56324 16.8303 3.56324 4.25513 3.54595C3.70162 3.54595 3.54595 3.66703 3.54595 4.23784C3.56324 22.7114 3.56324 41.1849 3.54595 59.6584C3.54595 60.1946 3.68432 60.333 4.22054 60.333C16.813 60.3157 29.4227 60.3157 42.0151 60.333C42.6551 60.333 42.7416 60.1254 42.7416 59.5719C42.707 57.1676 42.7416 54.746 42.7243 52.3416C42.7243 51.84 42.8108 51.6151 43.3816 51.6497C44.16 51.6843 44.9211 51.6843 45.6995 51.6497C46.0973 51.6324 46.2703 51.7535 46.2703 52.186C46.253 55.9049 46.253 59.6411 46.2703 63.36C46.2703 63.8616 46.0281 63.827 45.6822 63.827H0.0172973C0.0172973 42.7416 0 21.6562 0 0.588108C0 0.103783 0.0864865 -0.0172977 0.588108 -0.0172977C15.8097 0.0172969 31.0486 0.0172969 46.2876 0.0172969C46.2703 0.294054 46.253 0.553513 46.253 0.83027C46.253 9.08108 46.253 17.3319 46.2703 25.5827C46.2703 26.2227 46.0973 26.413 45.4746 26.3784C44.7481 26.3265 44.0216 26.3265 43.2951 26.3784C42.8281 26.3784 42.6897 26.2573 42.707 25.8076Z" fill="#36BE21"/>
<path d="M44.2985 38.6595C43.9179 38.4519 44.1255 38.3481 44.3158 38.1924C46.4952 36.48 46.9277 32.7092 45.2152 30.4951C44.1255 29.0768 42.5342 28.6616 40.8909 28.5405C38.3482 28.333 35.8055 28.5059 33.2628 28.4541C32.7612 28.4368 32.6228 28.5578 32.6228 29.0768C32.6401 32.467 32.6401 35.84 32.6401 39.2303C32.6401 42.6205 32.6574 45.9935 32.6228 49.3838C32.6228 49.8681 32.7093 50.0411 33.2455 50.0411C35.4423 50.0065 37.6563 50.0238 39.8531 50.0238C41.0293 50.0411 42.2055 49.8681 43.3298 49.5222C45.0942 48.9513 46.1839 47.7578 46.6682 45.9762C46.7893 45.5438 46.8758 45.0941 46.9104 44.6443C47.0142 42.2054 46.6682 39.9741 44.2985 38.6595ZM37.1201 32.6054C37.1201 32.3113 37.2066 32.2076 37.5179 32.2249C38.3136 32.2422 39.1093 32.2076 39.905 32.2768C41.012 32.3805 41.4963 32.7957 41.6866 33.8854C41.9979 35.5632 41.4098 36.8259 39.4379 36.8086C38.7979 36.8086 38.1752 36.7914 37.5352 36.8086C37.2412 36.8086 37.1374 36.7222 37.1374 36.4281C37.1374 35.8054 37.1374 35.1654 37.1374 34.5254C37.1201 33.8854 37.1374 33.2454 37.1201 32.6054ZM42.3958 44.2811C42.1536 45.4919 41.4271 46.0973 40.0779 46.1838C39.2131 46.253 38.3482 46.2011 37.4833 46.2184C37.1547 46.2184 37.1201 46.08 37.1201 45.8032C37.1374 44.9903 37.1201 44.1773 37.1201 43.3643V41.0465C37.1201 40.7697 37.1374 40.5795 37.5006 40.5968C38.452 40.6313 39.4033 40.5968 40.3547 40.6486C41.3579 40.7178 42.0325 41.2714 42.3266 42.2573C42.5169 42.9146 42.5515 43.6065 42.3958 44.2811Z" fill="white"/>
<path d="M30.1664 49.4876C30.1664 49.9027 30.0626 50.0411 29.6302 50.0238C28.5405 50.0065 27.4507 49.9892 26.361 50.0238C25.8075 50.0411 25.6345 49.9027 25.6345 49.3319C25.6691 45.9762 25.6518 42.6032 25.6518 39.2476C25.6518 35.8573 25.6691 32.467 25.6345 29.0941C25.6345 28.5924 25.7383 28.4368 26.2745 28.4541C27.3815 28.4886 28.5059 28.4886 29.6129 28.4541C30.0107 28.4541 30.1664 28.5232 30.1664 28.973C30.1491 35.8054 30.1491 42.6378 30.1664 49.4876Z" fill="white"/>
<path d="M56.0604 45.0422C57.0464 44.1427 57.0637 43.0876 56.7004 41.9978C56.3545 40.96 55.455 40.7524 54.5037 40.7005C53.6215 40.6486 52.7394 40.6832 51.8399 40.6659C51.5113 40.6486 51.4075 40.7697 51.4075 41.0984C51.4248 43.9351 51.4248 46.7719 51.4075 49.6086C51.4075 49.9892 51.5458 50.0584 51.8918 50.0584C52.7913 50.0411 53.708 50.0584 54.6248 50.0411C55.9221 50.0065 56.7523 49.4357 57.0464 48.4324C57.4442 47.0832 57.081 45.7859 56.0604 45.0422ZM53.2237 43.3124C53.3102 42.88 52.9469 42.24 53.8637 42.3265C54.7804 42.413 55.0745 42.6032 55.0918 43.3124C55.1091 44.0562 54.7631 44.2811 53.8464 44.333C52.8258 44.3849 53.3794 43.6584 53.2237 43.3124ZM54.2442 48.3978C54.0885 48.4151 53.9156 48.3805 53.7599 48.3978C53.2929 48.467 53.1545 48.2595 53.2064 47.827C53.2237 47.6022 53.2237 47.3773 53.2064 47.1524C53.2064 47.1005 53.1891 47.0486 53.2064 47.0141C53.3967 46.6681 52.7394 45.9416 53.7253 45.9416C54.9361 45.9416 55.2994 46.1838 55.3513 47.0832C55.4031 47.9135 55.0399 48.3459 54.2442 48.3978Z" fill="white"/>
<path d="M79.7058 41.3232C79.7058 40.2681 79.7058 40.2854 78.6161 40.2681C78.1318 40.2508 77.9934 40.4065 78.0107 40.8735C78.0453 41.8422 78.028 42.8108 78.028 43.7622C77.7858 43.7967 77.7685 43.6238 77.6821 43.5373C76.7653 42.5513 75.5718 42.6205 74.8107 43.7276C73.8247 45.1459 73.842 48.0346 74.8626 49.4184C75.2604 50.0238 75.9869 50.3351 76.6961 50.1795C77.2669 50.0757 77.5956 49.6432 78.0799 49.107C77.8377 50.0757 78.3221 50.1103 78.8929 50.0411C78.9448 50.0411 78.9794 50.0411 79.0312 50.0411C79.6021 50.1449 79.7231 49.92 79.7231 49.3492C79.6885 46.6854 79.7058 44.0043 79.7058 41.3232ZM77.7512 48C77.6302 48.3632 77.2842 48.5881 76.9037 48.5708C76.4885 48.5708 76.2291 48.3286 76.0734 47.9827C75.8485 47.5157 75.8658 47.0141 75.8485 46.5124C75.8658 46.0281 75.8658 45.5611 76.0734 45.1113C76.2464 44.7654 76.5058 44.5059 76.9037 44.5059C77.2842 44.4886 77.6302 44.7135 77.7512 45.0768C78.1318 46.0108 78.1318 47.0486 77.7512 48Z" fill="white"/>
<path d="M59.7104 29.6822C59.7104 28.4713 59.7104 28.4886 58.4823 28.4886C58.0671 28.4886 57.9979 28.6443 58.0152 29.0076C58.0325 30.0108 58.0152 30.9968 58.0152 32.1038C56.7871 30.7892 55.6282 30.7546 54.8152 31.9308C53.812 33.3492 53.8293 36.2205 54.8498 37.6216C55.6109 38.6595 56.8217 38.7113 57.6866 37.7427C57.7731 37.6389 57.7731 37.4313 58.0498 37.4832C57.8077 38.1924 58.1882 38.3135 58.7763 38.2443C58.8628 38.227 58.9666 38.227 59.0531 38.2443C59.5893 38.3308 59.7277 38.1059 59.7277 37.5697C59.6931 34.9578 59.7104 32.3286 59.7104 29.6822ZM57.7212 36.2551C57.6001 36.5838 57.2715 36.8086 56.9082 36.7913C56.5277 36.7913 56.199 36.5665 56.0606 36.2032C55.8704 35.7362 55.7839 35.2346 55.8012 34.733C55.7666 34.2313 55.8531 33.7297 56.0606 33.28C56.199 32.934 56.545 32.7092 56.9082 32.7265C57.2542 32.7265 57.5828 32.934 57.7039 33.28C58.1363 34.2313 58.1363 35.3038 57.7212 36.2551Z" fill="white"/>
<path d="M53.241 37.6216C53.241 38.1232 53.1372 38.2789 52.6183 38.2616C51.4421 38.227 51.4248 38.2616 51.4248 37.0854V33.5568C51.4248 32.173 51.4421 30.7892 51.4248 29.4054C51.4248 29.0249 51.5286 28.9211 51.9091 28.9038C53.2237 28.8865 53.2237 28.8692 53.2237 30.2011C53.241 32.6746 53.2237 35.1481 53.241 37.6216Z" fill="white"/>
<path d="M64.2077 47.1524C65.1936 47.187 66.1623 47.1524 67.1482 47.1697C67.5461 47.187 67.719 47.1005 67.7017 46.6508C67.6844 46.0627 67.598 45.4746 67.4596 44.9038C67.0444 43.5719 66.1277 42.8281 64.9169 42.8454C63.6542 42.8627 62.6682 43.6238 62.2704 44.9038C62.0455 45.7168 61.9936 46.5643 62.0974 47.3946C62.3569 49.453 63.7925 50.5254 65.8336 50.1449C67.3904 49.8508 67.4596 49.7643 67.425 48.2076C67.425 48.1384 67.4077 48.0692 67.4077 47.9308C67.0963 48.1038 66.8715 48.2422 66.6293 48.3632C66.3698 48.4843 66.0758 48.5881 65.799 48.6573C64.7785 48.8821 64.1212 48.5362 63.8617 47.6713C63.7407 47.2908 63.7753 47.1524 64.2077 47.1524ZM64.3115 44.5751C64.6401 44.333 65.0034 44.2465 65.3839 44.4886C65.7644 44.7135 65.8682 45.0767 65.9201 45.4573C65.9547 45.6476 65.8855 45.7513 65.6607 45.7513C65.3839 45.7513 65.1244 45.7513 64.8477 45.7513C64.7958 45.7513 64.7612 45.7513 64.7093 45.7513C64.4153 45.6822 63.9309 45.9589 63.8271 45.5611C63.7407 45.2151 63.9828 44.8173 64.3115 44.5751Z" fill="white"/>
<path d="M71.7664 34.0411C71.7145 31.7924 70.8324 30.9795 68.5837 31.0832C68.4972 31.0832 68.4107 31.0832 68.307 31.1005C66.9059 31.2389 66.8713 31.2562 66.8886 32.6746V33.107C67.6151 32.6919 68.2897 32.5189 69.0161 32.5708C69.241 32.5708 69.4659 32.64 69.6561 32.7611C69.9502 32.9168 70.0886 33.2627 70.0021 33.5741C69.9156 33.8854 69.6215 33.7124 69.414 33.7297C69.0161 33.7816 68.601 33.7643 68.1859 33.8162C67.2172 33.9546 66.6291 34.56 66.4734 35.4941C66.2832 36.6703 66.6637 37.7946 67.4421 38.2097C67.8399 38.4173 68.3243 38.4692 68.7567 38.3654C69.2929 38.2443 69.6043 37.8119 70.054 37.3622C69.8637 38.1924 70.2442 38.3308 70.8151 38.2443C70.9361 38.227 71.0399 38.227 71.161 38.2443C71.628 38.3135 71.7837 38.1232 71.7664 37.6562C71.7491 36.4627 71.801 35.2519 71.7664 34.0411ZM70.054 35.5286C70.0021 36.2897 69.5351 36.947 68.947 36.9297C68.3589 36.9124 68.1686 36.5319 68.1686 36.013C68.1686 35.3557 68.5491 35.0962 69.6388 35.0789C69.7772 35.0789 70.0886 35.0097 70.054 35.5286Z" fill="white"/>
<path d="M70.2961 47.1524C71.2648 47.187 72.2507 47.1524 73.2194 47.1697C73.5653 47.1697 73.7037 47.1005 73.7037 46.72C73.721 46.0108 73.5999 45.3189 73.375 44.6443C72.9253 43.4681 72.0431 42.8281 70.9188 42.8281C69.7253 42.8454 68.8258 43.4854 68.3761 44.627C68.0302 45.4919 68.0302 46.3913 68.1167 47.3081C68.3242 49.3665 69.7426 50.4735 71.7837 50.1449C73.3577 49.8854 73.4788 49.747 73.4442 48.1903C73.4442 48.1211 73.4269 48.0519 73.4096 47.8962C72.6658 48.3459 71.974 48.7265 71.1264 48.6919C70.4691 48.6573 70.0885 48.3286 69.881 47.7232C69.7426 47.3254 69.7772 47.1351 70.2961 47.1524ZM71.0572 44.3503C71.5069 44.4195 71.974 45.0249 71.9567 45.4919C71.9394 45.7168 71.8183 45.7513 71.6453 45.7513H70.815C70.7977 45.7513 70.7631 45.7513 70.7458 45.7513C70.4691 45.613 69.8983 46.0973 69.881 45.4227C69.8637 44.8173 70.5037 44.2811 71.0572 44.3503Z" fill="white"/>
<path d="M62.6682 35.3384C63.6368 35.373 64.6228 35.3384 65.5914 35.3557C65.9201 35.3557 66.0758 35.3038 66.0758 34.9232C66.0585 34.1449 66.0239 33.4011 65.6779 32.6746C65.2109 31.6886 64.5017 31.0832 63.3601 31.0832C62.1839 31.0832 61.3709 31.6022 60.852 32.64C60.4368 33.4703 60.4196 34.3351 60.4541 35.2346C60.5579 37.587 62.0282 38.7633 64.3633 38.3308C65.7644 38.0714 65.8336 38.0022 65.8163 36.6184C65.8163 36.48 65.799 36.3589 65.799 36.1514C65.1763 36.5146 64.5882 36.8432 63.8963 36.9124C63.0833 37.0162 62.4606 36.6357 62.2531 35.9092C62.1493 35.5632 62.1666 35.3211 62.6682 35.3384ZM62.8585 32.7265C63.2909 32.467 63.8444 32.6054 64.1039 33.0205C64.2596 33.28 64.4152 33.5741 64.2942 33.8508C64.1731 34.1276 63.8444 33.9373 63.6196 33.9719C63.4985 33.9892 63.3947 33.9892 63.2736 33.9719C63.2217 33.9719 63.1871 33.9719 63.1352 33.9719C62.8412 33.8854 62.3568 34.1795 62.2704 33.7816C62.1839 33.3838 62.4433 32.9514 62.8585 32.7265Z" fill="white"/>
<path d="M62.0974 43.3989C62.0628 43.8833 62.0974 44.3503 62.0974 44.8346C60.4541 44.5578 59.9525 44.9557 59.9006 46.6508C59.866 47.6022 59.866 48.5535 59.9006 49.5049C59.9006 49.9027 59.8314 50.0584 59.3817 50.0584C58.1882 50.0584 58.1882 50.0757 58.1882 48.8995C58.1882 47.1524 58.2055 45.4054 58.1709 43.6584C58.1709 43.1568 58.2747 42.9146 58.7936 43.0184C58.8109 43.0184 58.8455 43.0184 58.8628 43.0184C59.7968 43.0184 59.7968 43.0184 59.9698 43.9178C60.3504 43.3297 60.8001 42.8973 61.492 42.8454C61.8898 42.8108 62.132 42.9146 62.0974 43.3989Z" fill="white"/>
</g>
<defs>
<clipPath id="clip0_912_8205">
<rect width="79.8616" height="64" fill="white"/>
</clipPath>
</defs>
</svg>
