<svg width="80" height="64" viewBox="0 0 80 64" fill="none" xmlns="http://www.w3.org/2000/svg">
<g clip-path="url(#clip0_1066_8605)">
<path d="M30.1665 28.9557C30.1492 35.8054 30.1492 42.6378 30.1665 49.4703C30.1665 49.8854 30.0627 50.0238 29.6303 50.0065C28.5405 49.9892 27.4508 49.9719 26.3611 50.0065C25.8076 50.0238 25.6346 49.8854 25.6346 49.3146C25.6692 45.9589 25.6519 42.5859 25.6519 39.2303C25.6519 35.84 25.6692 32.4497 25.6346 29.0768C25.6346 28.5751 25.7384 28.4195 26.2746 28.4368C27.3816 28.4713 28.5059 28.4713 29.613 28.4368C30.0108 28.4368 30.1665 28.5059 30.1665 28.9557Z" fill="black"/>
<path d="M46.2357 52.1686C46.2184 55.8876 46.2184 59.6238 46.2357 63.3427C46.2357 63.8443 45.9935 63.8097 45.6476 63.8097H0.0346069C0.380553 63.533 0.795688 63.6022 1.19353 63.6022H44.8519C46.0454 63.6022 46.0454 63.6022 46.0454 62.3913V52.9816C46.0454 51.9611 45.9762 51.9092 44.9557 51.9092C44.5405 51.9092 44.1427 51.8919 43.7276 51.9092C43.0357 51.9265 42.9492 51.9957 42.9492 52.7049C42.9319 54.7978 42.9492 56.8908 42.9492 58.9838C42.9492 60.4368 42.8973 60.5059 41.4616 60.5059H4.41082C3.51136 60.4713 3.35569 60.3157 3.33839 59.3989V4.99892C3.33839 3.35568 3.33839 3.33838 5.01623 3.33838H41.3059C42.9146 3.33838 42.9492 3.37297 42.9492 4.98162V25.3059C42.9665 26.0151 43.0357 26.1016 43.7276 26.1189C44.2465 26.1362 44.7654 26.1189 45.3016 26.1189C45.8378 26.1189 46.0627 25.9286 46.0454 25.3924C46.0281 25.1157 46.0454 24.8389 46.0454 24.5795V1.24541C46.0627 0.83027 45.9762 0.380541 46.2703 0C46.253 0.276757 46.2357 0.536216 46.2357 0.812973C46.2357 9.06378 46.2357 17.3146 46.253 25.5654C46.253 26.2054 46.08 26.3957 45.4573 26.3611C44.7308 26.3092 44.0043 26.3092 43.2778 26.3611C42.8281 26.3784 42.707 26.2573 42.707 25.8076C42.7416 24.4065 42.7243 22.9881 42.7243 21.587C42.7243 15.8097 42.707 10.0497 42.7416 4.27243C42.7416 3.64973 42.5514 3.54595 41.9805 3.54595C29.4054 3.56324 16.8303 3.56324 4.25515 3.54595C3.70163 3.54595 3.54596 3.66703 3.54596 4.23784C3.56325 22.7114 3.56325 41.1849 3.54596 59.6584C3.54596 60.1946 3.68434 60.333 4.22055 60.333C16.813 60.3157 29.4227 60.3157 42.0151 60.333C42.6551 60.333 42.7416 60.1254 42.7416 59.5719C42.707 57.1676 42.7416 54.7459 42.7243 52.3416C42.7243 51.84 42.8108 51.6151 43.3816 51.6497C44.16 51.6843 44.9211 51.6843 45.6995 51.6497C46.08 51.6151 46.253 51.7362 46.2357 52.1686Z" fill="black"/>
<path d="M44.2984 38.6595C43.9178 38.4519 44.1254 38.3481 44.3157 38.1924C46.4951 36.48 46.9275 32.7092 45.2151 30.4951C44.1254 29.0768 42.534 28.6616 40.8908 28.5405C38.3481 28.333 35.8054 28.5059 33.2627 28.4541C32.7611 28.4368 32.6227 28.5578 32.6227 29.0768C32.64 32.467 32.64 35.84 32.64 39.2303C32.64 42.6205 32.6573 45.9935 32.6227 49.3838C32.6227 49.8681 32.7092 50.0411 33.2454 50.0411C35.4421 50.0065 37.6562 50.0238 39.853 50.0238C41.0292 50.0411 42.2054 49.8681 43.3297 49.5222C45.094 48.9513 46.1838 47.7578 46.6681 45.9762C46.7892 45.5438 46.8757 45.0941 46.9103 44.6443C47.014 42.2054 46.6681 39.9741 44.2984 38.6595ZM37.12 32.6054C37.12 32.3113 37.2065 32.2076 37.5178 32.2249C38.3135 32.2422 39.1092 32.2076 39.9048 32.2768C41.0119 32.3805 41.4962 32.7957 41.6865 33.8854C41.9978 35.5632 41.4097 36.8259 39.4378 36.8086C38.7978 36.8086 38.1751 36.7914 37.5351 36.8086C37.2411 36.8086 37.1373 36.7222 37.1373 36.4281C37.1373 35.8054 37.1373 35.1654 37.1373 34.5254C37.12 33.8854 37.1373 33.2454 37.12 32.6054ZM42.3957 44.2811C42.1535 45.4919 41.427 46.0973 40.0778 46.1838C39.213 46.253 38.3481 46.2011 37.4832 46.2184C37.1546 46.2184 37.12 46.08 37.12 45.8032C37.1373 44.9903 37.12 44.1773 37.12 43.3643V41.0465C37.12 40.7697 37.1373 40.5795 37.5005 40.5968C38.4519 40.6313 39.4032 40.5968 40.3546 40.6486C41.3578 40.7178 42.0324 41.2714 42.3265 42.2573C42.5167 42.9146 42.5513 43.6065 42.3957 44.2811Z" fill="black"/>
<path d="M51.4249 29.4054C51.4249 29.0249 51.5287 28.9211 51.9092 28.9038C53.2238 28.8865 53.2238 28.8692 53.2238 30.2011C53.2238 32.6746 53.2065 35.1481 53.2411 37.6216C53.2411 38.1232 53.1373 38.2789 52.6184 38.2616C51.4422 38.227 51.4249 38.2616 51.4249 37.0854V33.5568C51.4422 32.173 51.4422 30.7892 51.4249 29.4054Z" fill="black"/>
<path d="M56.0606 45.0422C57.0465 44.1427 57.0638 43.0876 56.7006 41.9978C56.3546 40.96 55.4552 40.7524 54.5038 40.7005C53.6216 40.6486 52.7395 40.6832 51.84 40.6659C51.5114 40.6486 51.4076 40.7697 51.4076 41.0984C51.4249 43.9351 51.4249 46.7719 51.4076 49.6086C51.4076 49.9892 51.546 50.0584 51.8919 50.0584C52.7914 50.0411 53.7081 50.0584 54.6249 50.0411C55.9222 50.0065 56.7525 49.4357 57.0465 48.4324C57.4443 47.0832 57.0811 45.7859 56.0606 45.0422ZM53.2238 43.3124C53.3103 42.88 52.947 42.24 53.8638 42.3265C54.7806 42.413 55.0746 42.6032 55.0919 43.3124C55.1092 44.0562 54.7633 44.2811 53.8465 44.333C52.826 44.3849 53.3795 43.6584 53.2238 43.3124ZM54.2443 48.3978C54.0887 48.4151 53.9157 48.3805 53.76 48.3978C53.293 48.467 53.1546 48.2595 53.2065 47.827C53.2238 47.6022 53.2238 47.3773 53.2065 47.1524C53.2065 47.1005 53.1892 47.0486 53.2065 47.0141C53.3968 46.6681 52.7395 45.9416 53.7254 45.9416C54.9362 45.9416 55.2995 46.1838 55.3514 47.0832C55.4033 47.9135 55.04 48.3459 54.2443 48.3978Z" fill="black"/>
<path d="M59.7103 29.6822C59.7103 28.4713 59.7103 28.4886 58.4821 28.4886C58.067 28.4886 57.9978 28.6443 58.0151 29.0076C58.0324 30.0108 58.0151 30.9968 58.0151 32.1038C56.787 30.7892 55.6281 30.7546 54.8151 31.9308C53.8119 33.3492 53.8292 36.2205 54.8497 37.6216C55.6108 38.6595 56.8216 38.7113 57.6865 37.7427C57.773 37.6389 57.773 37.4313 58.0497 37.4832C57.8075 38.1924 58.1881 38.3135 58.7762 38.2443C58.8627 38.227 58.9665 38.227 59.053 38.2443C59.5892 38.3308 59.7275 38.1059 59.7275 37.5697C59.693 34.9578 59.7103 32.3286 59.7103 29.6822ZM57.7211 36.2551C57.6 36.5838 57.2713 36.8086 56.9081 36.7913C56.5275 36.7913 56.1989 36.5665 56.0605 36.2032C55.8702 35.7362 55.7838 35.2346 55.8011 34.733C55.7665 34.2313 55.853 33.7297 56.0605 33.28C56.1989 32.934 56.5448 32.7092 56.9081 32.7265C57.254 32.7265 57.5827 32.934 57.7038 33.28C58.1362 34.2313 58.1362 35.3038 57.7211 36.2551Z" fill="black"/>
<path d="M62.08 44.8346C60.4367 44.5578 59.9351 44.9557 59.8832 46.6508C59.8486 47.6022 59.8486 48.5535 59.8832 49.5049C59.8832 49.9027 59.814 50.0584 59.3643 50.0584C58.1708 50.0584 58.1708 50.0757 58.1708 48.8995C58.1708 47.1524 58.1881 45.4054 58.1535 43.6584C58.1535 43.1567 58.2573 42.9146 58.7762 43.0184C58.7935 43.0184 58.8281 43.0184 58.8454 43.0184C59.7795 43.0184 59.7795 43.0184 59.9524 43.9178C60.333 43.3297 60.7827 42.8973 61.4746 42.8454C61.8897 42.8108 62.1319 42.8973 62.08 43.3989C62.0627 43.8832 62.08 44.3503 62.08 44.8346Z" fill="black"/>
<path d="M62.6681 35.3384C63.6368 35.373 64.6227 35.3384 65.5914 35.3557C65.92 35.3557 66.0757 35.3038 66.0757 34.9232C66.0584 34.1449 66.0238 33.4011 65.6779 32.6746C65.2108 31.6886 64.5017 31.0832 63.36 31.0832C62.1838 31.0832 61.3708 31.6022 60.8519 32.64C60.4368 33.4703 60.4195 34.3351 60.4541 35.2346C60.5579 37.587 62.0281 38.7633 64.3633 38.3308C65.7644 38.0714 65.8335 38.0022 65.8163 36.6184C65.8163 36.48 65.799 36.3589 65.799 36.1514C65.1762 36.5146 64.5881 36.8432 63.8962 36.9124C63.0833 37.0162 62.4606 36.6357 62.253 35.9092C62.1492 35.5632 62.1665 35.3211 62.6681 35.3384ZM62.8584 32.7265C63.2908 32.467 63.8444 32.6054 64.1038 33.0205C64.2595 33.28 64.4152 33.5741 64.2941 33.8508C64.173 34.1276 63.8444 33.9373 63.6195 33.9719C63.4984 33.9892 63.3946 33.9892 63.2735 33.9719C63.2217 33.9719 63.1871 33.9719 63.1352 33.9719C62.8411 33.8854 62.3568 34.1795 62.2703 33.7816C62.1838 33.3838 62.4433 32.9514 62.8584 32.7265Z" fill="black"/>
<path d="M64.2076 47.1524C65.1935 47.187 66.1622 47.1524 67.1481 47.1697C67.5459 47.187 67.7189 47.1005 67.7016 46.6508C67.6843 46.0627 67.5978 45.4746 67.4595 44.9038C67.0443 43.5719 66.1276 42.8281 64.9167 42.8454C63.654 42.8627 62.6681 43.6238 62.2703 44.9038C62.0454 45.7168 61.9935 46.5643 62.0973 47.3946C62.3567 49.453 63.7924 50.5254 65.8335 50.1449C67.3903 49.8508 67.4594 49.7643 67.4249 48.2076C67.4249 48.1384 67.4076 48.0692 67.4076 47.9308C67.0962 48.1038 66.8713 48.2422 66.6292 48.3632C66.3697 48.4843 66.0757 48.5881 65.7989 48.6573C64.7784 48.8821 64.1211 48.5362 63.8616 47.6713C63.7405 47.2908 63.7751 47.1524 64.2076 47.1524ZM64.3113 44.5751C64.64 44.333 65.0032 44.2465 65.3838 44.4886C65.7643 44.7135 65.8681 45.0767 65.92 45.4573C65.9546 45.6476 65.8854 45.7513 65.6605 45.7513C65.3838 45.7513 65.1243 45.7513 64.8476 45.7513C64.7957 45.7513 64.7611 45.7513 64.7092 45.7513C64.4151 45.6822 63.9308 45.9589 63.827 45.5611C63.7405 45.2151 63.9827 44.8173 64.3113 44.5751Z" fill="black"/>
<path d="M71.7665 34.0411C71.7146 31.7924 70.8324 30.9795 68.5838 31.0832C68.4973 31.0832 68.4108 31.0832 68.307 31.1005C66.9059 31.2389 66.8714 31.2562 66.8886 32.6746V33.107C67.6151 32.6919 68.2897 32.5189 69.0162 32.5708C69.2411 32.5708 69.4659 32.64 69.6562 32.7611C69.9503 32.9168 70.0886 33.2627 70.0022 33.5741C69.9157 33.8854 69.6216 33.7124 69.414 33.7297C69.0162 33.7816 68.6011 33.7643 68.1859 33.8162C67.2173 33.9546 66.6292 34.56 66.4735 35.4941C66.2832 36.6703 66.6638 37.7946 67.4422 38.2097C67.84 38.4173 68.3243 38.4692 68.7567 38.3654C69.293 38.2443 69.6043 37.8119 70.054 37.3622C69.8638 38.1924 70.2443 38.3308 70.8151 38.2443C70.9362 38.227 71.04 38.227 71.1611 38.2443C71.6281 38.3135 71.7838 38.1232 71.7665 37.6562C71.7492 36.4627 71.8011 35.2519 71.7665 34.0411ZM70.054 35.5286C70.0021 36.2897 69.5351 36.947 68.947 36.9297C68.3589 36.9124 68.1686 36.5319 68.1686 36.013C68.1686 35.3557 68.5492 35.0962 69.6389 35.0789C69.7773 35.0789 70.0886 35.0097 70.054 35.5286Z" fill="black"/>
<path d="M70.2962 47.1524C71.2649 47.187 72.2508 47.1524 73.2195 47.1697C73.5654 47.1697 73.7038 47.1005 73.7038 46.72C73.7211 46.0108 73.6 45.3189 73.3752 44.6443C72.9254 43.4681 72.0433 42.8281 70.9189 42.8281C69.7254 42.8454 68.826 43.4854 68.3762 44.627C68.0303 45.4919 68.0303 46.3913 68.1168 47.3081C68.3243 49.3665 69.7427 50.4735 71.7838 50.1449C73.3579 49.8854 73.4789 49.747 73.4443 48.1903C73.4443 48.1211 73.427 48.0519 73.4098 47.8962C72.666 48.3459 71.9741 48.7265 71.1265 48.6919C70.4692 48.6573 70.0887 48.3286 69.8811 47.7232C69.7427 47.3254 69.7773 47.1351 70.2962 47.1524ZM71.0573 44.3503C71.507 44.4195 71.9741 45.0249 71.9568 45.4919C71.9395 45.7168 71.8184 45.7513 71.6454 45.7513H70.8152C70.7979 45.7513 70.7633 45.7513 70.746 45.7513C70.4692 45.613 69.8984 46.0973 69.8811 45.4227C69.8638 44.8173 70.5038 44.2811 71.0573 44.3503Z" fill="black"/>
<path d="M79.706 41.3232C79.706 40.2681 79.706 40.2854 78.6162 40.2681C78.1319 40.2508 77.9935 40.4065 78.0108 40.8735C78.0454 41.8422 78.0281 42.8108 78.0281 43.7622C77.786 43.7967 77.7687 43.6238 77.6822 43.5373C76.7654 42.5513 75.5719 42.6205 74.8108 43.7276C73.8249 45.1459 73.8422 48.0346 74.8627 49.4184C75.2605 50.0238 75.987 50.3351 76.6962 50.1795C77.267 50.0757 77.5957 49.6432 78.08 49.107C77.8379 50.0757 78.3222 50.1103 78.893 50.0411C78.9449 50.0411 78.9795 50.0411 79.0314 50.0411C79.6022 50.1449 79.7233 49.92 79.7233 49.3492C79.6887 46.6854 79.706 44.0043 79.706 41.3232ZM77.7514 48C77.6303 48.3632 77.2843 48.5881 76.9038 48.5708C76.4887 48.5708 76.2292 48.3286 76.0735 47.9827C75.8487 47.5157 75.866 47.0141 75.8487 46.5124C75.866 46.0281 75.866 45.5611 76.0735 45.1113C76.2465 44.7654 76.506 44.5059 76.9038 44.5059C77.2843 44.4886 77.6303 44.7135 77.7514 45.0768C78.1319 46.0108 78.1319 47.0486 77.7514 48Z" fill="black"/>
<path d="M42.707 25.8076C42.7416 24.4065 42.7243 22.9881 42.7243 21.587C42.7243 15.8097 42.707 10.0497 42.7416 4.27243C42.7416 3.64973 42.5513 3.54595 41.9805 3.54595C29.4054 3.56324 16.8303 3.56324 4.25513 3.54595C3.70162 3.54595 3.54595 3.66703 3.54595 4.23784C3.56324 22.7114 3.56324 41.1849 3.54595 59.6584C3.54595 60.1946 3.68432 60.333 4.22054 60.333C16.813 60.3157 29.4227 60.3157 42.0151 60.333C42.6551 60.333 42.7416 60.1254 42.7416 59.5719C42.707 57.1676 42.7416 54.746 42.7243 52.3416C42.7243 51.84 42.8108 51.6151 43.3816 51.6497C44.16 51.6843 44.9211 51.6843 45.6995 51.6497C46.0973 51.6324 46.2703 51.7535 46.2703 52.186C46.253 55.9049 46.253 59.6411 46.2703 63.36C46.2703 63.8616 46.0281 63.827 45.6822 63.827H0.0172973C0.0172973 42.7416 0 21.6562 0 0.588108C0 0.103783 0.0864865 -0.0172977 0.588108 -0.0172977C15.8097 0.0172969 31.0486 0.0172969 46.2876 0.0172969C46.2703 0.294054 46.253 0.553513 46.253 0.83027C46.253 9.08108 46.253 17.3319 46.2703 25.5827C46.2703 26.2227 46.0973 26.413 45.4746 26.3784C44.7481 26.3265 44.0216 26.3265 43.2951 26.3784C42.8281 26.3784 42.6897 26.2573 42.707 25.8076Z" fill="#36BE21"/>
<path d="M44.2984 38.6595C43.9178 38.4519 44.1254 38.3481 44.3157 38.1924C46.4951 36.48 46.9275 32.7092 45.2151 30.4951C44.1254 29.0768 42.534 28.6616 40.8908 28.5405C38.3481 28.333 35.8054 28.5059 33.2627 28.4541C32.7611 28.4368 32.6227 28.5578 32.6227 29.0768C32.64 32.467 32.64 35.84 32.64 39.2303C32.64 42.6205 32.6573 45.9935 32.6227 49.3838C32.6227 49.8681 32.7092 50.0411 33.2454 50.0411C35.4421 50.0065 37.6562 50.0238 39.853 50.0238C41.0292 50.0411 42.2054 49.8681 43.3297 49.5222C45.094 48.9513 46.1838 47.7578 46.6681 45.9762C46.7892 45.5438 46.8757 45.0941 46.9103 44.6443C47.014 42.2054 46.6681 39.9741 44.2984 38.6595ZM37.12 32.6054C37.12 32.3113 37.2065 32.2076 37.5178 32.2249C38.3135 32.2422 39.1092 32.2076 39.9048 32.2768C41.0119 32.3805 41.4962 32.7957 41.6865 33.8854C41.9978 35.5632 41.4097 36.8259 39.4378 36.8086C38.7978 36.8086 38.1751 36.7914 37.5351 36.8086C37.2411 36.8086 37.1373 36.7222 37.1373 36.4281C37.1373 35.8054 37.1373 35.1654 37.1373 34.5254C37.12 33.8854 37.1373 33.2454 37.12 32.6054ZM42.3957 44.2811C42.1535 45.4919 41.427 46.0973 40.0778 46.1838C39.213 46.253 38.3481 46.2011 37.4832 46.2184C37.1546 46.2184 37.12 46.08 37.12 45.8032C37.1373 44.9903 37.12 44.1773 37.12 43.3643V41.0465C37.12 40.7697 37.1373 40.5795 37.5005 40.5968C38.4519 40.6313 39.4032 40.5968 40.3546 40.6486C41.3578 40.7178 42.0324 41.2714 42.3265 42.2573C42.5167 42.9146 42.5513 43.6065 42.3957 44.2811Z" fill="black"/>
<path d="M30.1665 49.4876C30.1665 49.9027 30.0627 50.0411 29.6303 50.0238C28.5405 50.0065 27.4508 49.9892 26.3611 50.0238C25.8076 50.0411 25.6346 49.9027 25.6346 49.3319C25.6692 45.9762 25.6519 42.6032 25.6519 39.2476C25.6519 35.8573 25.6692 32.467 25.6346 29.0941C25.6346 28.5924 25.7384 28.4368 26.2746 28.4541C27.3816 28.4886 28.5059 28.4886 29.613 28.4541C30.0108 28.4541 30.1665 28.5232 30.1665 28.973C30.1492 35.8054 30.1492 42.6378 30.1665 49.4876Z" fill="black"/>
<path d="M56.0606 45.0422C57.0465 44.1427 57.0638 43.0876 56.7006 41.9978C56.3546 40.96 55.4552 40.7524 54.5038 40.7005C53.6216 40.6486 52.7395 40.6832 51.84 40.6659C51.5114 40.6486 51.4076 40.7697 51.4076 41.0984C51.4249 43.9351 51.4249 46.7719 51.4076 49.6086C51.4076 49.9892 51.546 50.0584 51.8919 50.0584C52.7914 50.0411 53.7081 50.0584 54.6249 50.0411C55.9222 50.0065 56.7525 49.4357 57.0465 48.4324C57.4443 47.0832 57.0811 45.7859 56.0606 45.0422ZM53.2238 43.3124C53.3103 42.88 52.947 42.24 53.8638 42.3265C54.7806 42.413 55.0746 42.6032 55.0919 43.3124C55.1092 44.0562 54.7633 44.2811 53.8465 44.333C52.826 44.3849 53.3795 43.6584 53.2238 43.3124ZM54.2443 48.3978C54.0887 48.4151 53.9157 48.3805 53.76 48.3978C53.293 48.467 53.1546 48.2595 53.2065 47.827C53.2238 47.6022 53.2238 47.3773 53.2065 47.1524C53.2065 47.1005 53.1892 47.0486 53.2065 47.0141C53.3968 46.6681 52.7395 45.9416 53.7254 45.9416C54.9362 45.9416 55.2995 46.1838 55.3514 47.0832C55.4033 47.9135 55.04 48.3459 54.2443 48.3978Z" fill="black"/>
<path d="M79.706 41.3232C79.706 40.2681 79.706 40.2854 78.6162 40.2681C78.1319 40.2508 77.9935 40.4065 78.0108 40.8735C78.0454 41.8422 78.0281 42.8108 78.0281 43.7622C77.786 43.7967 77.7687 43.6238 77.6822 43.5373C76.7654 42.5513 75.5719 42.6205 74.8108 43.7276C73.8249 45.1459 73.8422 48.0346 74.8627 49.4184C75.2605 50.0238 75.987 50.3351 76.6962 50.1795C77.267 50.0757 77.5957 49.6432 78.08 49.107C77.8379 50.0757 78.3222 50.1103 78.893 50.0411C78.9449 50.0411 78.9795 50.0411 79.0314 50.0411C79.6022 50.1449 79.7233 49.92 79.7233 49.3492C79.6887 46.6854 79.706 44.0043 79.706 41.3232ZM77.7514 48C77.6303 48.3632 77.2843 48.5881 76.9038 48.5708C76.4887 48.5708 76.2292 48.3286 76.0735 47.9827C75.8487 47.5157 75.866 47.0141 75.8487 46.5124C75.866 46.0281 75.866 45.5611 76.0735 45.1113C76.2465 44.7654 76.506 44.5059 76.9038 44.5059C77.2843 44.4886 77.6303 44.7135 77.7514 45.0768C78.1319 46.0108 78.1319 47.0486 77.7514 48Z" fill="black"/>
<path d="M59.7103 29.6822C59.7103 28.4713 59.7103 28.4886 58.4821 28.4886C58.067 28.4886 57.9978 28.6443 58.0151 29.0076C58.0324 30.0108 58.0151 30.9968 58.0151 32.1038C56.787 30.7892 55.6281 30.7546 54.8151 31.9308C53.8119 33.3492 53.8292 36.2205 54.8497 37.6216C55.6108 38.6595 56.8216 38.7113 57.6865 37.7427C57.773 37.6389 57.773 37.4313 58.0497 37.4832C57.8075 38.1924 58.1881 38.3135 58.7762 38.2443C58.8627 38.227 58.9665 38.227 59.053 38.2443C59.5892 38.3308 59.7275 38.1059 59.7275 37.5697C59.693 34.9578 59.7103 32.3286 59.7103 29.6822ZM57.7211 36.2551C57.6 36.5838 57.2713 36.8086 56.9081 36.7913C56.5275 36.7913 56.1989 36.5665 56.0605 36.2032C55.8702 35.7362 55.7838 35.2346 55.8011 34.733C55.7665 34.2313 55.853 33.7297 56.0605 33.28C56.1989 32.934 56.5448 32.7092 56.9081 32.7265C57.254 32.7265 57.5827 32.934 57.7038 33.28C58.1362 34.2313 58.1362 35.3038 57.7211 36.2551Z" fill="black"/>
<path d="M53.2411 37.6216C53.2411 38.1232 53.1373 38.2789 52.6184 38.2616C51.4422 38.227 51.4249 38.2616 51.4249 37.0854V33.5568C51.4249 32.173 51.4422 30.7892 51.4249 29.4054C51.4249 29.0249 51.5287 28.9211 51.9092 28.9038C53.2238 28.8865 53.2238 28.8692 53.2238 30.2011C53.2411 32.6746 53.2238 35.1481 53.2411 37.6216Z" fill="black"/>
<path d="M64.2076 47.1524C65.1935 47.187 66.1622 47.1524 67.1481 47.1697C67.5459 47.187 67.7189 47.1005 67.7016 46.6508C67.6843 46.0627 67.5978 45.4746 67.4595 44.9038C67.0443 43.5719 66.1276 42.8281 64.9167 42.8454C63.654 42.8627 62.6681 43.6238 62.2703 44.9038C62.0454 45.7168 61.9935 46.5643 62.0973 47.3946C62.3567 49.453 63.7924 50.5254 65.8335 50.1449C67.3903 49.8508 67.4594 49.7643 67.4249 48.2076C67.4249 48.1384 67.4076 48.0692 67.4076 47.9308C67.0962 48.1038 66.8713 48.2422 66.6292 48.3632C66.3697 48.4843 66.0757 48.5881 65.7989 48.6573C64.7784 48.8821 64.1211 48.5362 63.8616 47.6713C63.7405 47.2908 63.7751 47.1524 64.2076 47.1524ZM64.3113 44.5751C64.64 44.333 65.0032 44.2465 65.3838 44.4886C65.7643 44.7135 65.8681 45.0767 65.92 45.4573C65.9546 45.6476 65.8854 45.7513 65.6605 45.7513C65.3838 45.7513 65.1243 45.7513 64.8476 45.7513C64.7957 45.7513 64.7611 45.7513 64.7092 45.7513C64.4151 45.6822 63.9308 45.9589 63.827 45.5611C63.7405 45.2151 63.9827 44.8173 64.3113 44.5751Z" fill="black"/>
<path d="M71.7665 34.0411C71.7146 31.7924 70.8324 30.9795 68.5838 31.0832C68.4973 31.0832 68.4108 31.0832 68.307 31.1005C66.9059 31.2389 66.8714 31.2562 66.8886 32.6746V33.107C67.6151 32.6919 68.2897 32.5189 69.0162 32.5708C69.2411 32.5708 69.4659 32.64 69.6562 32.7611C69.9503 32.9168 70.0886 33.2627 70.0022 33.5741C69.9157 33.8854 69.6216 33.7124 69.414 33.7297C69.0162 33.7816 68.6011 33.7643 68.1859 33.8162C67.2173 33.9546 66.6292 34.56 66.4735 35.4941C66.2832 36.6703 66.6638 37.7946 67.4422 38.2097C67.84 38.4173 68.3243 38.4692 68.7567 38.3654C69.293 38.2443 69.6043 37.8119 70.054 37.3622C69.8638 38.1924 70.2443 38.3308 70.8151 38.2443C70.9362 38.227 71.04 38.227 71.1611 38.2443C71.6281 38.3135 71.7838 38.1232 71.7665 37.6562C71.7492 36.4627 71.8011 35.2519 71.7665 34.0411ZM70.054 35.5286C70.0021 36.2897 69.5351 36.947 68.947 36.9297C68.3589 36.9124 68.1686 36.5319 68.1686 36.013C68.1686 35.3557 68.5492 35.0962 69.6389 35.0789C69.7773 35.0789 70.0886 35.0097 70.054 35.5286Z" fill="black"/>
<path d="M70.2962 47.1524C71.2649 47.187 72.2508 47.1524 73.2195 47.1697C73.5654 47.1697 73.7038 47.1005 73.7038 46.72C73.7211 46.0108 73.6 45.3189 73.3752 44.6443C72.9254 43.4681 72.0433 42.8281 70.9189 42.8281C69.7254 42.8454 68.826 43.4854 68.3762 44.627C68.0303 45.4919 68.0303 46.3913 68.1168 47.3081C68.3243 49.3665 69.7427 50.4735 71.7838 50.1449C73.3579 49.8854 73.4789 49.747 73.4443 48.1903C73.4443 48.1211 73.427 48.0519 73.4098 47.8962C72.666 48.3459 71.9741 48.7265 71.1265 48.6919C70.4692 48.6573 70.0887 48.3286 69.8811 47.7232C69.7427 47.3254 69.7773 47.1351 70.2962 47.1524ZM71.0573 44.3503C71.507 44.4195 71.9741 45.0249 71.9568 45.4919C71.9395 45.7168 71.8184 45.7513 71.6454 45.7513H70.8152C70.7979 45.7513 70.7633 45.7513 70.746 45.7513C70.4692 45.613 69.8984 46.0973 69.8811 45.4227C69.8638 44.8173 70.5038 44.2811 71.0573 44.3503Z" fill="black"/>
<path d="M62.6681 35.3384C63.6368 35.373 64.6227 35.3384 65.5914 35.3557C65.92 35.3557 66.0757 35.3038 66.0757 34.9232C66.0584 34.1449 66.0238 33.4011 65.6779 32.6746C65.2108 31.6886 64.5017 31.0832 63.36 31.0832C62.1838 31.0832 61.3708 31.6022 60.8519 32.64C60.4368 33.4703 60.4195 34.3351 60.4541 35.2346C60.5579 37.587 62.0281 38.7633 64.3633 38.3308C65.7644 38.0714 65.8335 38.0022 65.8163 36.6184C65.8163 36.48 65.799 36.3589 65.799 36.1514C65.1762 36.5146 64.5881 36.8432 63.8962 36.9124C63.0833 37.0162 62.4606 36.6357 62.253 35.9092C62.1492 35.5632 62.1665 35.3211 62.6681 35.3384ZM62.8584 32.7265C63.2908 32.467 63.8444 32.6054 64.1038 33.0205C64.2595 33.28 64.4152 33.5741 64.2941 33.8508C64.173 34.1276 63.8444 33.9373 63.6195 33.9719C63.4984 33.9892 63.3946 33.9892 63.2735 33.9719C63.2217 33.9719 63.1871 33.9719 63.1352 33.9719C62.8411 33.8854 62.3568 34.1795 62.2703 33.7816C62.1838 33.3838 62.4433 32.9514 62.8584 32.7265Z" fill="black"/>
<path d="M62.0973 43.3989C62.0627 43.8833 62.0973 44.3503 62.0973 44.8346C60.4541 44.5578 59.9525 44.9557 59.9006 46.6508C59.866 47.6022 59.866 48.5535 59.9006 49.5049C59.9006 49.9027 59.8314 50.0584 59.3816 50.0584C58.1881 50.0584 58.1881 50.0757 58.1881 48.8995C58.1881 47.1524 58.2054 45.4054 58.1708 43.6584C58.1708 43.1568 58.2746 42.9146 58.7935 43.0184C58.8108 43.0184 58.8454 43.0184 58.8627 43.0184C59.7968 43.0184 59.7968 43.0184 59.9698 43.9178C60.3503 43.3297 60.8 42.8973 61.4919 42.8454C61.8898 42.8108 62.1319 42.9146 62.0973 43.3989Z" fill="black"/>
</g>
<defs>
<clipPath id="clip0_1066_8605">
<rect width="79.8616" height="64" fill="white"/>
</clipPath>
</defs>
</svg>
