<svg width="25" height="24" viewBox="0 0 25 24" fill="none" xmlns="http://www.w3.org/2000/svg">
<path d="M12.8614 8.87579C11.1411 8.87579 9.73722 10.2797 9.73722 12C9.73722 13.7203 11.1411 15.1242 12.8614 15.1242C14.5818 15.1242 15.9857 13.7203 15.9857 12C15.9857 10.2797 14.5818 8.87579 12.8614 8.87579ZM22.2318 12C22.2318 10.7063 22.2435 9.42423 22.1708 8.13282C22.0982 6.63282 21.756 5.30157 20.6591 4.2047C19.5599 3.10548 18.231 2.76564 16.731 2.69298C15.4372 2.62033 14.1552 2.63204 12.8638 2.63204C11.57 2.63204 10.288 2.62033 8.9966 2.69298C7.4966 2.76564 6.16535 3.10783 5.06847 4.2047C3.96925 5.30392 3.62941 6.63282 3.55675 8.13282C3.4841 9.42657 3.49581 10.7086 3.49581 12C3.49581 13.2914 3.4841 14.5758 3.55675 15.8672C3.62941 17.3672 3.9716 18.6984 5.06847 19.7953C6.16769 20.8945 7.4966 21.2344 8.9966 21.307C10.2904 21.3797 11.5724 21.368 12.8638 21.368C14.1575 21.368 15.4396 21.3797 16.731 21.307C18.231 21.2344 19.5622 20.8922 20.6591 19.7953C21.7583 18.6961 22.0982 17.3672 22.1708 15.8672C22.2458 14.5758 22.2318 13.2938 22.2318 12V12ZM12.8614 16.807C10.2013 16.807 8.05441 14.6602 8.05441 12C8.05441 9.33985 10.2013 7.19298 12.8614 7.19298C15.5216 7.19298 17.6685 9.33985 17.6685 12C17.6685 14.6602 15.5216 16.807 12.8614 16.807ZM17.8654 8.11876C17.2443 8.11876 16.7427 7.6172 16.7427 6.99611C16.7427 6.37501 17.2443 5.87345 17.8654 5.87345C18.4865 5.87345 18.988 6.37501 18.988 6.99611C18.9882 7.14359 18.9593 7.28966 18.9029 7.42595C18.8466 7.56224 18.7639 7.68607 18.6596 7.79036C18.5553 7.89464 18.4315 7.97733 18.2952 8.03368C18.1589 8.09003 18.0128 8.11895 17.8654 8.11876V8.11876Z" fill="#B8B8B8"/>
</svg>
