<svg width="80" height="82" viewBox="0 0 80 82" fill="none" xmlns="http://www.w3.org/2000/svg">
<g clip-path="url(#clip0_461_3591)">
<circle cx="40" cy="41" r="40.5" stroke="white" stroke-dasharray="2 2"/>
<circle cx="40" cy="41" r="40.5" stroke="white" stroke-dasharray="2 2"/>
<path d="M21.6576 34C21.8283 34.128 22.0896 34.256 22.4416 34.384C22.7936 34.5013 23.2096 34.56 23.6896 34.56C24.159 34.56 24.5376 34.4853 24.8256 34.336C25.1243 34.176 25.3483 33.9413 25.4976 33.632C25.6576 33.312 25.7643 32.9067 25.8176 32.416C25.8816 31.9253 25.9136 31.344 25.9136 30.672V24.64H27.7216V30.416C27.7216 31.2587 27.6736 32.032 27.5776 32.736C27.4923 33.44 27.3163 34.0533 27.0496 34.576C26.783 35.088 26.383 35.4827 25.8496 35.76C25.327 36.0373 24.623 36.176 23.7376 36.176C23.215 36.176 22.751 36.1173 22.3456 36C21.9403 35.8827 21.567 35.7067 21.2256 35.472L21.6576 34ZM35.6781 36.08C34.8568 36.08 34.1155 35.92 33.4541 35.6C32.7928 35.28 32.2221 34.848 31.7421 34.304C31.2621 33.7493 30.8888 33.1307 30.6221 32.448C30.3661 31.7547 30.2381 31.0453 30.2381 30.32C30.2381 29.5627 30.3768 28.8427 30.6541 28.16C30.9315 27.4667 31.3155 26.8533 31.8061 26.32C32.2968 25.776 32.8728 25.3493 33.5341 25.04C34.2061 24.72 34.9315 24.56 35.7101 24.56C36.5208 24.56 37.2568 24.7253 37.9181 25.056C38.5901 25.3867 39.1608 25.8293 39.6301 26.384C40.1101 26.9387 40.4781 27.5573 40.7341 28.24C41.0008 28.9227 41.1341 29.6213 41.1341 30.336C41.1341 31.0933 40.9955 31.8187 40.7181 32.512C40.4515 33.1947 40.0728 33.808 39.5821 34.352C39.0915 34.8853 38.5101 35.3067 37.8381 35.616C37.1768 35.9253 36.4568 36.08 35.6781 36.08ZM32.0621 30.32C32.0621 30.8533 32.1475 31.3707 32.3181 31.872C32.4888 32.3733 32.7288 32.8213 33.0381 33.216C33.3581 33.6 33.7421 33.904 34.1901 34.128C34.6381 34.352 35.1395 34.464 35.6941 34.464C36.2701 34.464 36.7821 34.3467 37.2301 34.112C37.6781 33.8773 38.0515 33.5627 38.3501 33.168C38.6595 32.7627 38.8941 32.3147 39.0541 31.824C39.2141 31.3227 39.2941 30.8213 39.2941 30.32C39.2941 29.7867 39.2088 29.2747 39.0381 28.784C38.8781 28.2827 38.6381 27.84 38.3181 27.456C37.9981 27.0613 37.6141 26.752 37.1661 26.528C36.7288 26.304 36.2381 26.192 35.6941 26.192C35.1181 26.192 34.6061 26.3093 34.1581 26.544C33.7101 26.7787 33.3315 27.0933 33.0221 27.488C32.7128 27.8827 32.4728 28.3253 32.3021 28.816C32.1421 29.3067 32.0621 29.808 32.0621 30.32ZM43.7894 36V24.64H45.5814V36H43.7894ZM50.7407 27.968V36H48.9487V24.64H50.4207L56.8527 32.848V24.656H58.6607V36H57.0927L50.7407 27.968ZM22.4361 49.968V58H20.6441V46.64H22.1161L28.5481 54.848V46.656H30.3561V58H28.7881L22.4361 49.968ZM38.4297 58.08C37.6084 58.08 36.867 57.92 36.2057 57.6C35.5444 57.28 34.9737 56.848 34.4937 56.304C34.0137 55.7493 33.6404 55.1307 33.3737 54.448C33.1177 53.7547 32.9897 53.0453 32.9897 52.32C32.9897 51.5627 33.1284 50.8427 33.4057 50.16C33.683 49.4667 34.067 48.8533 34.5577 48.32C35.0484 47.776 35.6244 47.3493 36.2857 47.04C36.9577 46.72 37.683 46.56 38.4617 46.56C39.2724 46.56 40.0084 46.7253 40.6697 47.056C41.3417 47.3867 41.9124 47.8293 42.3817 48.384C42.8617 48.9387 43.2297 49.5573 43.4857 50.24C43.7524 50.9227 43.8857 51.6213 43.8857 52.336C43.8857 53.0933 43.747 53.8187 43.4697 54.512C43.203 55.1947 42.8244 55.808 42.3337 56.352C41.843 56.8853 41.2617 57.3067 40.5897 57.616C39.9284 57.9253 39.2084 58.08 38.4297 58.08ZM34.8137 52.32C34.8137 52.8533 34.899 53.3707 35.0697 53.872C35.2404 54.3733 35.4804 54.8213 35.7897 55.216C36.1097 55.6 36.4937 55.904 36.9417 56.128C37.3897 56.352 37.891 56.464 38.4457 56.464C39.0217 56.464 39.5337 56.3467 39.9817 56.112C40.4297 55.8773 40.803 55.5627 41.1017 55.168C41.411 54.7627 41.6457 54.3147 41.8057 53.824C41.9657 53.3227 42.0457 52.8213 42.0457 52.32C42.0457 51.7867 41.9604 51.2747 41.7897 50.784C41.6297 50.2827 41.3897 49.84 41.0697 49.456C40.7497 49.0613 40.3657 48.752 39.9177 48.528C39.4804 48.304 38.9897 48.192 38.4457 48.192C37.8697 48.192 37.3577 48.3093 36.9097 48.544C36.4617 48.7787 36.083 49.0933 35.7737 49.488C35.4644 49.8827 35.2244 50.3253 35.0537 50.816C34.8937 51.3067 34.8137 51.808 34.8137 52.32ZM50.1354 46.688H51.8154L53.2234 50.544L54.6474 46.688H56.3274L54.3754 51.744L56.0714 55.92L59.6074 46.64H61.5754L56.9194 58H55.3674L53.2394 52.912L51.0954 58H49.5274L44.8874 46.64H46.8394L50.3914 55.92L52.0874 51.744L50.1354 46.688Z" fill="white"/>
</g>
<path d="M78 40V42H82V40H78ZM2 42V40H-2V42H2ZM40 80C19.0132 80 2 62.9868 2 42H-2C-2 65.196 16.804 84 40 84V80ZM78 42C78 62.9868 60.9868 80 40 80V84C63.196 84 82 65.196 82 42H78ZM40 2C60.9868 2 78 19.0132 78 40H82C82 16.804 63.196 -2 40 -2V2ZM40 -2C16.804 -2 -2 16.804 -2 40H2C2 19.0132 19.0132 2 40 2V-2Z" fill="white"/>
<defs>
<clipPath id="clip0_461_3591">
<path d="M0 40C0 17.9086 17.9086 0 40 0V0C62.0914 0 80 17.9086 80 40V42C80 64.0914 62.0914 82 40 82V82C17.9086 82 0 64.0914 0 42V40Z" fill="white"/>
</clipPath>
</defs>
</svg>
