<svg width="25" height="24" viewBox="0 0 25 24" fill="none" xmlns="http://www.w3.org/2000/svg">
<path fill-rule="evenodd" clip-rule="evenodd" d="M1.86133 2.838C1.86133 2.35053 2.05497 1.88303 2.39967 1.53834C2.74436 1.19365 3.21186 1 3.69933 1H22.0213C22.2629 0.999608 22.5022 1.04687 22.7255 1.13907C22.9488 1.23127 23.1517 1.36661 23.3226 1.53734C23.4935 1.70807 23.6291 1.91083 23.7215 2.13401C23.8139 2.3572 23.8615 2.59643 23.8613 2.838V21.16C23.8616 21.4016 23.8142 21.6409 23.7219 21.8642C23.6296 22.0875 23.4942 22.2904 23.3233 22.4613C23.1525 22.6322 22.9497 22.7678 22.7265 22.8602C22.5032 22.9526 22.2639 23.0001 22.0223 23H3.69933C3.45787 23 3.21879 22.9524 2.99573 22.86C2.77266 22.7676 2.57 22.6321 2.39931 22.4613C2.22863 22.2905 2.09326 22.0878 2.00095 21.8647C1.90864 21.6416 1.8612 21.4025 1.86133 21.161V2.838ZM10.5693 9.388H13.5483V10.884C13.9783 10.024 15.0783 9.25 16.7313 9.25C19.9003 9.25 20.6513 10.963 20.6513 14.106V19.928H17.4443V14.822C17.4443 13.032 17.0143 12.022 15.9223 12.022C14.4073 12.022 13.7773 13.111 13.7773 14.822V19.928H10.5693V9.388ZM5.06933 19.791H8.27733V9.25H5.06933V19.79V19.791ZM8.73633 5.812C8.74238 6.08667 8.6935 6.35979 8.59257 6.61532C8.49164 6.87084 8.34068 7.10364 8.14856 7.30003C7.95644 7.49643 7.72703 7.65248 7.47378 7.75901C7.22054 7.86554 6.94857 7.92042 6.67383 7.92042C6.39909 7.92042 6.12712 7.86554 5.87387 7.75901C5.62063 7.65248 5.39122 7.49643 5.1991 7.30003C5.00698 7.10364 4.85602 6.87084 4.75509 6.61532C4.65416 6.35979 4.60528 6.08667 4.61133 5.812C4.6232 5.27286 4.84571 4.75979 5.23121 4.38269C5.61671 4.00558 6.13455 3.79442 6.67383 3.79442C7.2131 3.79442 7.73094 4.00558 8.11644 4.38269C8.50194 4.75979 8.72446 5.27286 8.73633 5.812V5.812Z" fill="#B8B8B8"/>
</svg>
