<svg width="21" height="20" viewBox="0 0 21 20" fill="none" xmlns="http://www.w3.org/2000/svg">
<path d="M10.862 9.99984C9.94531 9.99984 9.19531 9.24984 9.19531 8.33317C9.19531 7.4165 9.94531 6.6665 10.862 6.6665C11.7786 6.6665 12.5286 7.4165 12.5286 8.33317C12.5286 9.24984 11.7786 9.99984 10.862 9.99984ZM15.862 8.49984C15.862 5.47484 13.6536 3.33317 10.862 3.33317C8.07031 3.33317 5.86198 5.47484 5.86198 8.49984C5.86198 10.4498 7.48698 13.0332 10.862 16.1165C14.237 13.0332 15.862 10.4498 15.862 8.49984ZM10.862 1.6665C14.362 1.6665 17.5286 4.34984 17.5286 8.49984C17.5286 11.2665 15.3036 14.5415 10.862 18.3332C6.42031 14.5415 4.19531 11.2665 4.19531 8.49984C4.19531 4.34984 7.36198 1.6665 10.862 1.6665Z" fill="#B8B8B8"/>
</svg>
