<svg width="21" height="20" viewBox="0 0 21 20" fill="none" xmlns="http://www.w3.org/2000/svg">
<path d="M6.31182 4.16667C6.36182 4.90833 6.48682 5.63333 6.68682 6.325L5.68682 7.325C5.34515 6.325 5.12848 5.26667 5.05348 4.16667H6.31182V4.16667ZM14.5285 14.1833C15.2368 14.3833 15.9618 14.5083 16.6951 14.5583V15.8C15.5951 15.725 14.5368 15.5083 13.5285 15.175L14.5285 14.1833V14.1833ZM7.11182 2.5H4.19515C3.73682 2.5 3.36182 2.875 3.36182 3.33333C3.36182 11.1583 9.70348 17.5 17.5285 17.5C17.9868 17.5 18.3618 17.125 18.3618 16.6667V13.7583C18.3618 13.3 17.9868 12.925 17.5285 12.925C16.4951 12.925 15.4868 12.7583 14.5535 12.45C14.4701 12.4167 14.3785 12.4083 14.2952 12.4083C14.0785 12.4083 13.8701 12.4917 13.7035 12.65L11.8701 14.4833C9.51182 13.275 7.57848 11.35 6.37848 8.99167L8.21182 7.15833C8.44515 6.925 8.51182 6.6 8.42015 6.30833C8.11182 5.375 7.94515 4.375 7.94515 3.33333C7.94515 2.875 7.57015 2.5 7.11182 2.5Z" fill="#B8B8B8"/>
</svg>
