<svg width="86" height="86" viewBox="0 0 86 86" fill="none" xmlns="http://www.w3.org/2000/svg">
<circle cx="43" cy="43" r="42" stroke="#36BE21" stroke-width="2" stroke-dasharray="4 4"/>
<g clip-path="url(#clip0_902_7114)">
<path d="M65.0851 27.3343V58.6597C65.0499 58.7398 65.0204 58.8224 64.9969 58.9066C64.7812 60.0542 64.167 61.0908 63.2608 61.8367C62.3545 62.5827 61.2135 62.991 60.0353 62.991C48.1539 62.991 36.2736 62.991 24.3943 62.991C23.7308 62.9918 23.0737 62.8628 22.4606 62.6114C21.8476 62.3601 21.2906 61.9913 20.8217 61.5262C20.3528 61.0611 19.9813 60.5088 19.7283 59.9012C19.4753 59.2935 19.3459 58.6423 19.3475 57.985C19.3475 47.997 19.3475 38.011 19.3475 28.0271C19.3404 27.7913 19.3546 27.5555 19.3901 27.3223C19.8917 24.6445 21.8952 23 24.6558 23H59.8924C60.9868 22.9741 62.0604 23.2999 62.9525 23.9286C63.8446 24.5573 64.5075 25.4551 64.8419 26.4879C64.9331 26.768 65.003 27.0512 65.0851 27.3343ZM20.8676 35.0301C20.8676 35.1656 20.8676 35.253 20.8676 35.3313C20.8676 42.8333 20.8676 50.3384 20.8676 57.8464C20.8679 58.1851 20.9129 58.5223 21.0014 58.8494C21.4696 60.5241 22.8255 61.485 24.7105 61.485C36.379 61.485 48.0485 61.485 59.7191 61.485C60.1201 61.4896 60.5199 61.441 60.9078 61.3404C62.583 60.8856 63.5619 59.5542 63.5619 57.7591C63.5619 50.3293 63.5619 42.8996 63.5619 35.4699V35.0301H20.8676ZM20.9284 33.4427H63.5528C63.5528 31.5572 63.5772 29.7018 63.5376 27.8464C63.5164 27.376 63.393 26.9158 63.1758 26.497C62.4675 25.0783 61.2301 24.509 59.6795 24.509H25.2973C24.8534 24.509 24.4065 24.5361 23.9626 24.5753C22.4668 24.7138 21.0409 25.9698 20.9649 27.4427C20.8676 29.4277 20.9406 31.4156 20.9406 33.4427H20.9284Z" fill="#525252"/>
<path d="M44.3114 40.1175C44.0895 41.1627 43.8919 42.1115 43.7034 43.0603C42.9129 46.7832 42.1214 50.5051 41.3289 54.226C41.3067 54.3418 41.2782 54.4564 41.2438 54.5693C41.2012 54.7636 41.0852 54.9342 40.9195 55.0463C40.7538 55.1583 40.5511 55.2032 40.353 55.1717C40.2478 55.1469 40.1488 55.1013 40.0618 55.0377C39.9748 54.9742 39.9016 54.8939 39.8466 54.8017C39.7916 54.7095 39.7558 54.6073 39.7415 54.5012C39.7272 54.395 39.7345 54.2871 39.7632 54.1838C39.9578 53.2501 40.1615 52.3163 40.3712 51.3826C41.1516 47.6256 41.9471 43.8645 42.7578 40.0994C42.9007 39.4217 43.5513 39.1296 44.0013 39.5482C44.1384 39.718 44.2434 39.9108 44.3114 40.1175V40.1175Z" fill="#36BE21"/>
<path d="M33.6917 47.2289L37.4069 50.3614C37.5528 50.4849 37.7109 50.6054 37.8447 50.7379C37.9269 50.8012 37.9954 50.8804 38.0461 50.9705C38.0968 51.0607 38.1286 51.16 38.1397 51.2626C38.1508 51.3653 38.1409 51.469 38.1105 51.5678C38.0802 51.6665 38.0301 51.7582 37.9633 51.8373C37.8957 51.9173 37.8119 51.9822 37.7173 52.028C37.6227 52.0738 37.5194 52.0994 37.4142 52.1031C37.309 52.1068 37.2042 52.0885 37.1065 52.0495C37.0089 52.0104 36.9206 51.9515 36.8475 51.8765C36.1026 51.274 35.373 50.6385 34.6342 50.018L32.2233 47.9999C31.5848 47.4608 31.5757 47.0421 32.202 46.4939C33.7221 45.2078 35.2422 43.9307 36.7624 42.6475C37.0664 42.3764 37.4252 42.2379 37.8143 42.4849C38.2916 42.7861 38.2734 43.3644 37.7809 43.7861C36.7411 44.6686 35.6952 45.5421 34.6555 46.4216C34.3362 46.6776 34.0353 46.9367 33.6917 47.2289Z" fill="#36BE21"/>
<path d="M50.742 47.2259L46.7896 43.8856C46.7106 43.8163 46.6255 43.756 46.5525 43.6837C46.401 43.5495 46.3085 43.3618 46.2949 43.1608C46.2813 42.9599 46.3475 42.7616 46.4795 42.6084C46.6099 42.4641 46.7916 42.3754 46.9865 42.3608C47.1815 42.3462 47.3746 42.4069 47.5254 42.5301C47.948 42.8554 48.3462 43.2078 48.7415 43.5512C49.8937 44.5271 51.0521 45.5 52.2013 46.4789C52.8398 47.0211 52.8398 47.4398 52.2013 47.985C50.6872 49.2661 49.1671 50.5452 47.6409 51.8223C47.5385 51.9401 47.4043 52.0266 47.254 52.0714C47.1038 52.1162 46.9437 52.1176 46.7927 52.0753C46.6559 52.0353 46.5334 51.9579 46.4391 51.8519C46.3448 51.746 46.2827 51.6158 46.2598 51.4763C46.2369 51.3369 46.2543 51.1939 46.3098 51.0638C46.3654 50.9337 46.4569 50.8218 46.5738 50.741C47.4859 49.9308 48.4496 49.1506 49.3891 48.3554L50.742 47.2259Z" fill="#36BE21"/>
</g>
<defs>
<clipPath id="clip0_902_7114">
<rect width="48.4616" height="40.0001" fill="white" transform="translate(18.2695 23)"/>
</clipPath>
</defs>
</svg>
