<svg width="87" height="88" viewBox="0 0 87 88" fill="none" xmlns="http://www.w3.org/2000/svg">
<circle cx="43.0699" cy="44" r="42" transform="rotate(89.9069 43.0699 44)" stroke="#36BE21" stroke-width="2" stroke-dasharray="4 4"/>
<g clip-path="url(#clip0_912_8230)">
<path d="M66.0933 46.0943C65.499 46.721 65.1315 46.7286 64.5294 46.0943L62.3947 47.2942C62.2526 47.388 62.0867 47.4412 61.9154 47.448C61.7441 47.4547 61.5743 47.4147 61.425 47.3324C61.3733 47.3101 61.3174 47.2986 61.2608 47.2986C61.2043 47.2986 61.1484 47.3101 61.0966 47.3324C60.3694 47.7299 59.65 48.1426 58.9306 48.5554C59.7126 50.6266 58.6022 52.912 56.702 53.317C56.3893 54.0279 56.1547 54.6928 55.8184 55.3043C55.0365 56.6571 54.7081 56.8329 53.2223 56.9628C52.8079 57.7271 52.4404 58.4915 52.026 59.2558C51.7055 59.7263 51.2186 60.0645 50.6586 60.2056C50.0987 60.3467 49.5052 60.2806 48.992 60.0201C48.8356 59.9513 48.687 59.8672 48.6401 59.8443C48.2648 60.5911 47.8498 61.3182 47.3968 62.0226C47.0484 62.4754 46.5408 62.7861 45.9719 62.8948C45.403 63.0035 44.8131 62.9024 44.3159 62.6111C43.9093 62.3971 43.5339 62.1602 43.1039 61.9385L41.9622 61.2965C41.2428 61.7245 40.586 62.1525 39.9057 62.527C39.6309 62.6958 39.3234 62.807 39.0025 62.8537C38.6815 62.9003 38.3542 62.8814 38.0411 62.798C37.728 62.7147 37.4361 62.5688 37.1836 62.3696C36.9312 62.1703 36.7238 61.922 36.5745 61.6404C36.2148 61.0443 35.9021 60.4252 35.5502 59.7755C35.3156 59.7755 34.995 59.8596 34.6744 59.8672C34.3066 59.8853 33.9405 59.8087 33.6125 59.645C33.2845 59.4814 33.0063 59.2365 32.8055 58.9348C32.3364 58.2316 31.9688 57.4673 31.5153 56.6418H31.0461C30.7247 56.6564 30.4045 56.5945 30.113 56.4614C29.8215 56.3282 29.5675 56.1279 29.3727 55.8775C28.7081 55.0062 28.0043 54.1272 28.0747 52.9502C26.4404 52.461 25.8461 51.1693 25.4473 49.74C25.3733 49.506 25.3733 49.2556 25.4473 49.0216C25.6037 48.6318 25.4473 48.4866 25.1033 48.3337C24.6654 48.1044 24.2431 47.8522 23.8131 47.6152C23.383 47.3783 23.1797 47.1567 22.7183 47.4012C22.5697 47.4853 22.257 47.4012 22.0693 47.2713C20.9902 46.7286 19.9033 46.1095 18.8476 45.5057C18.6823 45.4221 18.5459 45.2926 18.4555 45.1335C18.3651 44.9745 18.3247 44.7929 18.3394 44.6115C18.3394 39.6893 18.3394 34.7671 18.3394 29.8449C18.3394 29.0041 18.9258 28.6602 19.6687 29.0806C20.7113 29.6564 21.7539 30.2398 22.7965 30.8309C23.2657 31.0984 23.3986 31.4805 23.1718 31.8474C22.9451 32.2143 22.5385 32.2831 22.0693 32.0232L19.786 30.7391C19.786 30.892 19.7469 30.999 19.7469 31.106C19.7469 35.4244 19.7469 39.7428 19.7469 44.0535C19.7351 44.1635 19.7589 44.2743 19.815 44.3703C19.8711 44.4663 19.9567 44.5427 20.0597 44.5885C20.8416 44.9936 21.561 45.4293 22.3664 45.8879L28.4266 35.6155L26.675 34.6219L26.198 35.3862L23.5941 39.8192C23.3282 40.2549 22.9607 40.3925 22.5854 40.209C22.21 40.0256 22.1006 39.5746 22.3664 39.116L24.595 35.4091C24.8843 34.9276 25.1658 34.4384 25.463 33.934C25.3222 33.8423 25.1815 33.7735 25.0642 33.6818C24.9237 33.5807 24.8284 33.4307 24.7978 33.2629C24.7673 33.095 24.8038 32.9221 24.9 32.7799C24.9369 32.7028 24.9899 32.6341 25.0556 32.5782C25.1213 32.5224 25.1981 32.4805 25.2813 32.4553C25.3645 32.4301 25.4521 32.4222 25.5386 32.432C25.6251 32.4418 25.7085 32.4692 25.7836 32.5124C27.1051 33.2767 28.4266 33.9798 29.6933 34.7442C29.7848 34.7986 29.863 34.872 29.9225 34.9592C29.9819 35.0463 30.0211 35.1451 30.0374 35.2486C30.0374 35.5773 30.2642 35.6996 30.5144 35.8448C31.4997 36.3874 32.4771 36.9454 33.4624 37.4957C33.6776 37.6149 33.8995 37.722 34.127 37.8167C34.5089 38.0303 34.9454 38.1323 35.3848 38.1106C35.8241 38.0889 36.2479 37.9445 36.6058 37.6944C37.6615 36.9836 38.8188 36.4104 39.9448 35.7913C40.6635 35.3601 41.4903 35.1318 42.3336 35.1318C43.1769 35.1318 44.0038 35.3601 44.7225 35.7913C45.739 36.3416 46.7399 36.9225 47.7487 37.4881C48.2414 37.7842 48.8085 37.9409 49.3869 37.9409C49.9653 37.9409 50.5323 37.7842 51.0251 37.4881C52.0572 36.9301 53.0738 36.3416 54.0903 35.7607C54.2163 35.6876 54.3087 35.5699 54.3484 35.432C54.3649 35.2507 54.4309 35.077 54.5396 34.9291C54.6482 34.7812 54.7955 34.6645 54.9661 34.5913L64.7249 29.0882C65.3426 28.7366 65.632 28.8054 66.0933 29.4016V46.0943ZM39.0768 56.3896C39.4139 56.3835 39.751 56.4014 40.0855 56.4431C40.8177 56.5819 41.4717 56.98 41.9219 57.5612C42.3722 58.1424 42.587 58.8656 42.5252 59.5921C42.515 59.6874 42.5258 59.7838 42.5568 59.8748C42.5878 59.9657 42.6384 60.0492 42.7051 60.1195C43.487 60.578 44.2221 61.0061 44.9962 61.4188C45.1093 61.4892 45.2363 61.5355 45.3689 61.5547C45.5016 61.574 45.6369 61.5656 45.766 61.5303C45.8951 61.4949 46.0151 61.4334 46.1183 61.3497C46.2214 61.2659 46.3054 61.1619 46.3646 61.0443C46.5366 60.7768 46.6852 60.4863 46.8416 60.2112C46.9496 60.0844 47.0247 59.9341 47.0605 59.7729C47.0963 59.6117 47.0917 59.4445 47.0472 59.2854C47.0027 59.1263 46.9195 58.9801 46.8047 58.8591C46.69 58.7382 46.547 58.6462 46.3881 58.5908C45.8642 58.2927 45.3324 58.0099 44.8242 57.6966C44.7407 57.6537 44.6672 57.5945 44.6081 57.5227C44.549 57.4509 44.5057 57.368 44.4808 57.2791C44.4558 57.1902 44.4499 57.0973 44.4632 57.0061C44.4765 56.9149 44.5089 56.8273 44.5583 56.7488C44.6043 56.6693 44.6663 56.5997 44.7405 56.5441C44.8146 56.4886 44.8995 56.4482 44.99 56.4253C45.0805 56.4025 45.1747 56.3977 45.2672 56.4113C45.3596 56.4248 45.4483 56.4565 45.5279 56.5042C45.6452 56.5577 45.7469 56.6189 45.8563 56.68C47.0527 57.3526 48.2491 58.0329 49.4455 58.6978C49.5642 58.7862 49.702 58.8469 49.8484 58.8752C49.9948 58.9035 50.1459 58.8986 50.2901 58.861C50.4343 58.8233 50.5677 58.7539 50.6802 58.6581C50.7927 58.5622 50.8812 58.4425 50.939 58.308C51.1032 58.0329 51.2596 57.7501 51.4082 57.4673C51.5071 57.3461 51.5752 57.2036 51.6067 57.0517C51.6382 56.8998 51.6324 56.7427 51.5896 56.5934C51.5468 56.4441 51.4684 56.3069 51.3607 56.193C51.253 56.0792 51.1192 55.992 50.9703 55.9386L47.4281 53.9361C47.304 53.8731 47.1862 53.7989 47.0762 53.7145C46.9318 53.6167 46.8307 53.4692 46.7929 53.3015C46.7552 53.1339 46.7837 52.9585 46.8728 52.8105C46.9618 52.6626 47.1048 52.553 47.2731 52.5037C47.4413 52.4545 47.6224 52.4693 47.7799 52.5451C47.9074 52.6021 48.0303 52.6686 48.1475 52.7438L52.8392 55.3807C52.9589 55.4737 53.0992 55.5381 53.2488 55.5689C53.3984 55.5997 53.5533 55.5961 53.7013 55.5583C53.8492 55.5205 53.9861 55.4495 54.1011 55.351C54.2162 55.2525 54.3062 55.1292 54.364 54.9909C54.5438 54.7005 54.7159 54.4177 54.8801 54.1196C54.9632 54.0031 55.0191 53.8703 55.044 53.7304C55.0689 53.5906 55.0621 53.4471 55.024 53.3101C54.986 53.1731 54.9177 53.0459 54.8239 52.9375C54.7302 52.8291 54.6132 52.7421 54.4813 52.6827C54.0434 52.4228 53.5977 52.1859 53.152 51.9183L49.5628 49.8929C49.4681 49.8559 49.3826 49.7993 49.3122 49.7272C49.2418 49.655 49.1881 49.5689 49.1547 49.4747C49.1213 49.3804 49.1091 49.2803 49.1188 49.181C49.1285 49.0817 49.1599 48.9857 49.2109 48.8993C49.2598 48.812 49.3274 48.7362 49.4091 48.6769C49.4908 48.6177 49.5848 48.5765 49.6844 48.5562C49.784 48.5358 49.8869 48.5368 49.986 48.5591C50.0852 48.5814 50.1782 48.6245 50.2587 48.6853C50.5324 48.8305 50.7983 48.9834 51.0407 49.1362L55.6933 51.8037C55.815 51.8944 55.9566 51.9561 56.1069 51.984C56.2573 52.0119 56.4122 52.0051 56.5594 51.9643C56.7066 51.9235 56.842 51.8498 56.955 51.749C57.068 51.6481 57.1554 51.5229 57.2103 51.3833C57.3432 51.1617 57.4605 50.9324 57.5856 50.7031C58.0626 49.8394 57.9532 49.4572 57.0696 48.9604C55.3493 47.9898 53.6211 47.0267 51.9087 46.0407C51.6975 45.9185 51.4395 45.7197 51.3926 45.5134C51.3772 45.3854 51.3886 45.2556 51.4263 45.1321C51.4639 45.0086 51.527 44.8938 51.6115 44.7949C51.8617 44.5198 52.2058 44.6115 52.5108 44.7949C54.1216 45.7121 55.735 46.6216 57.3511 47.5235C57.4762 47.5923 57.6951 47.6687 57.7968 47.6152C58.7038 47.1261 59.5953 46.614 60.518 46.0866C60.1896 45.521 59.869 44.9936 59.564 44.4433C59.5178 44.365 59.4878 44.2786 59.4758 44.189C59.4637 44.0994 59.4699 44.0083 59.4938 43.921C59.5178 43.8337 59.5591 43.7519 59.6154 43.6802C59.6717 43.6085 59.7419 43.5484 59.822 43.5032C59.9021 43.4581 59.9905 43.4287 60.0822 43.417C60.1739 43.4052 60.2671 43.4112 60.3564 43.4346C60.4457 43.4581 60.5294 43.4984 60.6028 43.5535C60.6761 43.6085 60.7376 43.6772 60.7838 43.7554C60.8933 43.9236 60.9871 44.0994 61.0888 44.2675L62.1288 45.8802L63.8413 44.9248L57.7733 34.6142L56.0296 35.6078C56.139 35.8066 56.2172 35.9671 56.3111 36.1199C57.226 37.6486 58.1487 39.2231 59.0557 40.7746C59.3685 41.3096 59.1574 41.8294 58.6178 41.9058C58.453 41.9177 58.2885 41.8783 58.148 41.7932C58.0075 41.708 57.8982 41.5816 57.8359 41.4319L55.3414 37.2817L55.0912 36.8307C53.9652 37.4651 52.8861 38.0919 51.7836 38.688C51.072 39.1152 50.2532 39.3414 49.4181 39.3414C48.5831 39.3414 47.7643 39.1152 47.0527 38.688C46.0284 38.1148 45.0118 37.5263 43.9796 36.9683C43.4869 36.6722 42.9199 36.5155 42.3415 36.5155C41.7631 36.5155 41.196 36.6722 40.7033 36.9683C38.8057 38.0282 36.9108 39.0957 35.0185 40.1708C34.9012 40.2319 34.7917 40.316 34.6822 40.3848C34.881 40.9325 35.2655 41.3973 35.772 41.7018C36.2784 42.0063 36.8762 42.1322 37.466 42.0587C38.1005 41.9453 38.7078 41.7172 39.2566 41.3861C40.453 40.7593 40.9769 40.7823 41.9857 41.6306C42.302 41.9173 42.6981 42.1058 43.124 42.1725C43.5499 42.2391 43.9864 42.1809 44.3784 42.0052C44.6763 41.882 44.9428 41.6962 45.159 41.4611C45.3752 41.226 45.5359 40.9473 45.6296 40.6447C45.8172 40.1097 46.1691 39.8804 46.5836 40.0409C46.998 40.2014 47.1387 40.5682 46.9667 41.1033L46.8181 41.5313C47.6861 42.0204 48.5306 42.4943 49.3751 42.9835C49.8521 43.2586 49.9851 43.6179 49.7583 43.9924C49.5315 44.3669 49.1405 44.4433 48.6714 44.1835C47.8894 43.7554 47.1075 43.3351 46.3802 42.8841C46.2735 42.7885 46.134 42.7355 45.9893 42.7355C45.8445 42.7355 45.705 42.7885 45.5983 42.8841C45.0227 43.3363 44.3103 43.5898 43.572 43.605C42.8337 43.6202 42.111 43.3963 41.5165 42.9682C40.6485 42.265 40.0855 42.4867 39.2723 42.9682C38.8041 43.2346 38.2868 43.4082 37.75 43.479C37.2132 43.5498 36.6673 43.5164 36.1437 43.3808C35.62 43.2453 35.1289 43.0101 34.6983 42.6888C34.2677 42.3675 33.9062 41.9664 33.6344 41.5084C33.0088 40.5147 33.0323 40.0944 33.7517 39.2536L29.3649 36.8078L23.8912 46.0866C24.7514 46.5758 25.5803 47.0496 26.417 47.5006C26.503 47.5465 26.6828 47.5006 26.7845 47.4165C27.6133 46.9579 28.4188 46.4764 29.2555 46.0331C29.6197 45.8364 30.0216 45.7155 30.4359 45.6779C30.8503 45.6402 31.2681 45.6868 31.6631 45.8145C32.0582 45.9423 32.422 46.1485 32.7316 46.4203C33.0412 46.692 33.29 47.0234 33.4624 47.3936C33.6529 47.796 33.7516 48.2342 33.7516 48.6776C33.7516 49.1211 33.6529 49.5592 33.4624 49.9617C34.1309 50.1674 34.7093 50.5866 35.1049 51.1521C35.5005 51.7176 35.6904 52.3966 35.644 53.0801C38.0837 53.3782 38.8266 54.0966 39.0768 56.3896ZM64.678 30.7239L59.001 33.9263L64.6076 43.3962L64.678 43.358V30.7239ZM32.3207 48.6394C32.3216 48.3692 32.2514 48.1033 32.1168 47.8674C31.9822 47.6314 31.7877 47.4332 31.5521 47.2919C31.3164 47.1507 31.0476 47.0711 30.7713 47.0607C30.4951 47.0504 30.2208 47.1098 29.9749 47.2331C29.0521 47.6993 28.1607 48.2267 27.2693 48.7617C27.1619 48.8224 27.068 48.9035 26.9932 49.0002C26.9183 49.0969 26.864 49.2072 26.8334 49.3247C26.8028 49.4422 26.7965 49.5645 26.815 49.6844C26.8335 49.8043 26.8763 49.9193 26.9409 50.0228C27.1285 50.3821 27.3475 50.7337 27.5664 51.0852C27.6276 51.2012 27.7131 51.3031 27.8175 51.3844C27.9218 51.4658 28.0425 51.5246 28.1718 51.5571C28.301 51.5896 28.4358 51.595 28.5673 51.5729C28.6988 51.5509 28.8241 51.5019 28.9349 51.4292C29.8106 50.9477 30.6786 50.4509 31.5466 49.9464C31.7773 49.8094 31.9692 49.6179 32.1044 49.3896C32.2397 49.1612 32.3141 48.9032 32.3207 48.6394V48.6394ZM34.1348 52.8202C34.1444 52.5526 34.0819 52.2872 33.9536 52.0507C33.8253 51.8141 33.6356 51.6146 33.4036 51.4722C33.1716 51.3298 32.9054 51.2494 32.6316 51.2392C32.3579 51.229 32.0862 51.2892 31.8437 51.4139C31.208 51.7289 30.5895 52.0759 29.9905 52.4534C29.8737 52.5149 29.7711 52.5994 29.6893 52.7015C29.6075 52.8037 29.5482 52.9213 29.5151 53.0469C29.4821 53.1725 29.476 53.3035 29.4973 53.4315C29.5185 53.5596 29.5666 53.6819 29.6386 53.7909C29.8185 54.1272 30.0139 54.4559 30.2173 54.7769C30.2758 54.8981 30.3606 55.0054 30.4658 55.0913C30.571 55.1773 30.694 55.2399 30.8264 55.2748C30.9588 55.3097 31.0974 55.3161 31.2325 55.2934C31.3677 55.2708 31.4962 55.2197 31.6091 55.1438C32.2112 54.8227 32.7977 54.4941 33.3764 54.1425C33.6145 54.0111 33.8112 53.8183 33.945 53.5851C34.0787 53.352 34.1444 53.0874 34.1348 52.8202V52.8202ZM37.6302 56.0992C37.6311 55.829 37.5609 55.5631 37.4263 55.3271C37.2917 55.0911 37.0972 54.8929 36.8615 54.7517C36.6259 54.6104 36.357 54.5308 36.0808 54.5205C35.8046 54.5102 35.5303 54.5695 35.2843 54.6928C34.6979 54.9832 34.1427 55.3195 33.5875 55.6482C33.4659 55.7036 33.3579 55.7839 33.2707 55.8836C33.1835 55.9833 33.1192 56.1001 33.0822 56.2261C33.0451 56.3522 33.0362 56.4845 33.0559 56.6143C33.0756 56.744 33.1236 56.868 33.1965 56.9781C33.3842 57.3297 33.5875 57.666 33.7986 58.0023C33.859 58.1188 33.9441 58.2216 34.0481 58.3037C34.1521 58.3858 34.2727 58.4454 34.402 58.4786C34.5313 58.5118 34.6663 58.5179 34.7982 58.4964C34.9301 58.4749 35.0558 58.4263 35.167 58.3539C35.7405 58.0482 36.3035 57.7271 36.856 57.3908C37.0876 57.2585 37.2804 57.0702 37.416 56.844C37.5515 56.6178 37.6253 56.3613 37.6302 56.0992V56.0992ZM41.1021 59.5539C41.1419 59.2721 41.1029 58.9851 40.9892 58.7233C40.8755 58.4615 40.6914 58.2347 40.4565 58.0669C40.2215 57.8992 39.9444 57.7968 39.6547 57.7706C39.365 57.7444 39.0734 57.7954 38.8109 57.9182C38.3796 58.1293 37.9594 58.3614 37.552 58.6138C37.4351 58.6753 37.3326 58.7598 37.2508 58.8619C37.169 58.9641 37.1097 59.0816 37.0766 59.2073C37.0436 59.3329 37.0375 59.4639 37.0587 59.5919C37.08 59.72 37.1281 59.8423 37.2001 59.9513C37.3878 60.3029 37.5911 60.6468 37.81 60.9755C37.8692 61.0872 37.9515 61.1857 38.0517 61.2647C38.1518 61.3438 38.2677 61.4016 38.3919 61.4347C38.5161 61.4677 38.6459 61.4752 38.7732 61.4567C38.9006 61.4382 39.0226 61.394 39.1315 61.3271C39.5616 61.1131 39.976 60.8761 40.3827 60.6239C40.579 60.512 40.7462 60.3572 40.871 60.1715C40.9959 59.9859 41.0749 59.7744 41.1021 59.5539V59.5539Z" fill="#525252"/>
<path d="M38.2791 34.0563C38.0568 33.9199 37.8498 33.761 37.6614 33.5824C37.5161 33.3854 37.4003 33.1692 37.3173 32.9404C36.8186 31.8838 35.9508 31.0356 34.8698 30.5481C34.6315 30.4431 34.3992 30.3257 34.1739 30.1965C34.0524 30.1341 33.9499 30.0416 33.8766 29.9283C33.8033 29.8149 33.7618 29.6847 33.7563 29.5508C33.7507 29.4168 33.7813 29.2838 33.845 29.165C33.9087 29.0462 34.0032 28.946 34.1191 28.8742C34.1806 28.8262 34.2491 28.7876 34.3224 28.7596C35.0608 28.4801 35.7319 28.0539 36.2932 27.5079C36.8544 26.9619 37.2937 26.308 37.5832 25.5876C37.6348 25.4266 37.7395 25.2868 37.8809 25.19C38.0224 25.0932 38.1926 25.0449 38.3651 25.0526C38.537 25.0646 38.7018 25.1241 38.8402 25.2243C38.9787 25.3245 39.0851 25.4611 39.1471 25.6182C39.4684 26.2177 39.8315 26.7949 40.234 27.3456C40.7836 27.9698 41.4856 28.4483 42.2749 28.7366C42.4633 28.7896 42.6298 28.8995 42.7506 29.0505C42.8713 29.2014 42.9402 29.3859 42.9474 29.5774C42.9307 29.7562 42.8578 29.9256 42.7389 30.0624C42.6199 30.1992 42.4606 30.2968 42.2827 30.3417C41.5751 30.615 40.9324 31.0273 40.3944 31.5532C39.8563 32.0791 39.4345 32.7073 39.1549 33.399C39.0892 33.5793 38.9716 33.7374 38.8163 33.854C38.6609 33.9706 38.4744 34.0408 38.2791 34.0563V34.0563ZM40.5468 29.5239L38.3573 27.3838L36.1678 29.5239L38.3573 31.6716L40.5468 29.5239Z" fill="#36BE21"/>
<path d="M48.1006 27.4908C48.3196 27.6742 48.6323 27.8194 48.734 28.0564C48.9782 28.649 49.3424 29.1874 49.8046 29.6392C50.2668 30.091 50.8176 30.4469 51.4239 30.6856C51.5799 30.7441 51.7127 30.8498 51.8027 30.9873C51.8928 31.1249 51.9354 31.287 51.9244 31.4499C51.9277 31.6145 51.8793 31.776 51.7856 31.9128C51.6919 32.0495 51.5574 32.1547 51.4004 32.2143C50.9291 32.4049 50.4891 32.6625 50.0946 32.9786C49.6226 33.4806 49.201 34.0258 48.8356 34.6066C48.6245 34.9199 48.4603 35.2333 48.0146 35.2486C47.5689 35.2639 47.3265 34.9582 47.1623 34.5913C46.9419 34.054 46.612 33.5661 46.1926 33.1575C45.7731 32.7488 45.273 32.4279 44.7226 32.2143C44.5363 32.1742 44.3697 32.0732 44.2503 31.9279C44.1308 31.7827 44.0657 31.6019 44.0657 31.4155C44.0657 31.2292 44.1308 31.0484 44.2503 30.9032C44.3697 30.7579 44.5363 30.6569 44.7226 30.6168C45.2796 30.3997 45.7858 30.0744 46.2105 29.6606C46.6352 29.2468 46.9697 28.753 47.1935 28.2092C47.2557 28.0156 47.3749 27.8441 47.5362 27.7163C47.6976 27.5885 47.8939 27.5101 48.1006 27.4908V27.4908ZM46.6774 31.4041L48.0068 32.6958L49.3752 31.4041L48.0537 30.0589L46.6774 31.4041Z" fill="#36BE21"/>
</g>
<defs>
<clipPath id="clip0_912_8230">
<rect width="48.4616" height="40.0001" fill="white" transform="translate(18.3394 24)"/>
</clipPath>
</defs>
</svg>
