<svg width="86" height="86" viewBox="0 0 86 86" fill="none" xmlns="http://www.w3.org/2000/svg">
<circle cx="43" cy="43" r="42" stroke="#36BE21" stroke-width="2" stroke-dasharray="4 4"/>
<g clip-path="url(#clip0_902_7125)">
<path d="M63.0305 47.8872C62.9187 48.5354 62.8293 49.1909 62.6952 49.8319C62.3096 51.7993 61.5514 53.6791 60.4598 55.3745C60.4146 55.4941 60.3421 55.6021 60.2478 55.6902C60.1534 55.7783 60.0398 55.8442 59.9154 55.8828C59.7911 55.9215 59.6594 55.9319 59.5303 55.9132C59.4012 55.8945 59.2782 55.8473 59.1707 55.7751C59.0665 55.713 58.9774 55.6296 58.9095 55.5305C58.8416 55.4315 58.7965 55.3192 58.7774 55.2014C58.7582 55.0837 58.7655 54.9632 58.7987 54.8485C58.8319 54.7338 58.8901 54.6274 58.9695 54.5369C60.2427 52.6072 61.0222 50.4064 61.2422 48.1203C61.6724 44.3021 60.5422 40.4724 58.0977 37.4648C55.7855 34.4949 52.3749 32.5287 48.5971 31.9877C44.9772 31.4459 41.2791 32.2075 38.1904 34.1308C35.1018 36.0541 32.8328 39.0082 31.8054 42.444C30.7779 45.8798 31.0619 49.5634 32.6045 52.8099C34.1471 56.0564 36.8433 58.6449 40.1919 60.0941C42.406 61.0747 44.8335 61.5061 47.259 61.3498C49.6845 61.1935 52.0331 60.4545 54.0963 59.1982L54.3422 59.0526C54.8861 58.7321 55.3779 58.8049 55.6462 59.2419C55.7143 59.3427 55.758 59.4574 55.774 59.5773C55.7899 59.6971 55.7777 59.8189 55.7381 59.9334C55.6986 60.0479 55.6329 60.1521 55.5459 60.238C55.4589 60.3239 55.3531 60.3893 55.2363 60.4291C54.1722 61.03 53.0667 61.5581 51.9279 62.0096C48.7897 63.1261 45.3818 63.3011 42.1412 62.5122C38.9005 61.7232 35.9748 60.0062 33.739 57.5813C32.429 56.1802 31.3889 54.559 30.669 52.7962C30.6389 52.674 30.5636 52.5671 30.4577 52.4958C30.3519 52.4246 30.2228 52.3941 30.0953 52.4102C28.3367 52.4102 26.5708 52.4102 24.8122 52.4102C24.2459 52.4102 23.9032 52.2062 23.7839 51.8202C23.745 51.6865 23.7404 51.5455 23.7705 51.4097C23.8006 51.2738 23.8646 51.1473 23.9567 51.0414C24.0489 50.9355 24.1663 50.8535 24.2986 50.8026C24.431 50.7517 24.5741 50.7335 24.7154 50.7496H29.9314L29.365 47.6396C28.1654 47.6396 26.9582 47.6396 25.7511 47.6396C25.6354 47.6503 25.5187 47.6373 25.4084 47.6013C25.2981 47.5654 25.1967 47.5074 25.1108 47.4309C25.0248 47.3545 24.9561 47.2613 24.9091 47.1574C24.8621 47.0535 24.8378 46.9411 24.8378 46.8275C24.8378 46.7139 24.8621 46.6015 24.9091 46.4976C24.9561 46.3937 25.0248 46.3005 25.1108 46.2241C25.1967 46.1476 25.2981 46.0896 25.4084 46.0536C25.5187 46.0177 25.6354 46.0047 25.7511 46.0154H29.365L29.7749 42.9127H21.5783C21.3719 42.9217 21.1654 42.8971 20.9673 42.8399C20.7867 42.7933 20.6305 42.6821 20.5297 42.5284C20.429 42.3746 20.391 42.1894 20.4234 42.0096C20.4211 41.835 20.483 41.6654 20.5979 41.5317C20.7128 41.398 20.873 41.3091 21.0493 41.2812C21.2258 41.2459 21.4056 41.2288 21.5858 41.2302H29.909C30.0278 41.2462 30.1483 41.2185 30.2474 41.1526C30.3465 41.0867 30.4171 40.9872 30.4455 40.8734C30.833 39.9629 31.2577 39.0671 31.6824 38.1348C31.5856 38.1348 31.4589 38.1348 31.3322 38.1348H27.1296C26.459 38.1348 26.079 37.8289 26.0864 37.3045C26.0939 36.7801 26.4888 36.5034 27.1222 36.5034C28.9403 36.5034 30.7585 36.5034 32.5766 36.5034C32.7705 36.4987 32.955 36.4203 33.0907 36.2849C35.4016 33.4704 38.6008 31.483 42.1889 30.633C42.4274 30.5747 42.5317 30.48 42.5168 30.2251C42.5168 29.7396 42.5168 29.2662 42.5168 28.8049C42.5325 28.7135 42.512 28.6196 42.4594 28.5425C42.4068 28.4653 42.326 28.4107 42.2336 28.3897C41.6 28.163 41.0693 27.7237 40.7363 27.1501C40.4033 26.5765 40.2896 25.9059 40.4155 25.2579C40.5503 24.6073 40.9158 24.0242 41.4474 23.6111C41.979 23.1981 42.6427 22.9817 43.3215 23.0001H49.0219C49.7335 22.9654 50.4328 23.1908 50.9838 23.6324C51.5347 24.0739 51.8978 24.7001 52.0024 25.389C52.093 26.0454 51.9428 26.7119 51.5787 27.2705C51.2145 27.8291 50.6598 28.2436 50.0129 28.4407L49.8862 28.4917V30.5019C50.3333 30.6257 50.7878 30.735 51.2275 30.8806C57.5314 32.9782 61.3316 37.2463 62.7623 43.5609C62.8889 44.129 62.9411 44.7117 63.0305 45.2798V47.8872ZM46.2052 26.9039H49.1858C49.3421 26.921 49.5004 26.9064 49.6508 26.8611C49.8011 26.8158 49.9403 26.7408 50.0598 26.6407C50.1792 26.5406 50.2763 26.4176 50.345 26.2793C50.4138 26.1409 50.4527 25.9903 50.4593 25.8366C50.466 25.683 50.4402 25.5297 50.3837 25.3862C50.3272 25.2427 50.2411 25.1121 50.1307 25.0025C50.0204 24.8929 49.8882 24.8066 49.7423 24.7491C49.5964 24.6915 49.4399 24.6639 49.2827 24.6679C48.6046 24.6242 47.9191 24.6679 47.241 24.6679C45.9519 24.6679 44.6628 24.6679 43.3737 24.6679C43.2072 24.6413 43.0367 24.6507 42.8743 24.6954C42.7119 24.7401 42.5615 24.819 42.4337 24.9266C42.3058 25.0342 42.2036 25.1679 42.1343 25.3182C42.065 25.4686 42.0302 25.632 42.0324 25.7969C42.0359 25.9591 42.0747 26.1188 42.1463 26.2653C42.2178 26.4118 42.3204 26.5418 42.4473 26.6465C42.5742 26.7512 42.7224 26.8283 42.8821 26.8727C43.0419 26.9171 43.2094 26.9277 43.3737 26.9039H46.2052ZM44.2679 30.1887H48.2246V28.5864H44.2679V30.1887Z" fill="#525252"/>
<path d="M46.2353 33.9251C48.7944 33.9236 51.2965 34.6646 53.4244 36.0542C55.5524 37.4438 57.2106 39.4195 58.1889 41.7309C59.1672 44.0424 59.4217 46.5856 58.9201 49.0386C58.4184 51.4915 57.1833 53.7437 55.3711 55.5099C53.5588 57.2762 51.2511 58.477 48.7401 58.9602C46.2291 59.4434 43.6279 59.1874 41.266 58.2244C38.904 57.2615 36.8876 55.635 35.4721 53.5511C34.0566 51.4671 33.3057 49.0194 33.3145 46.5179C33.3264 43.1753 34.6926 39.9735 37.1142 37.6133C39.5359 35.2532 42.8155 33.927 46.2353 33.9251V33.9251ZM46.2353 35.5929C44.0138 35.5901 41.8413 36.2309 39.9923 37.4344C38.1433 38.6379 36.7007 40.3501 35.8469 42.3546C34.993 44.3592 34.7662 46.5661 35.1951 48.6966C35.624 50.8271 36.6893 52.7856 38.2565 54.3245C39.8236 55.8634 41.8223 56.9138 44 57.3429C46.1776 57.772 48.4365 57.5605 50.4913 56.7352C52.546 55.9099 54.3044 54.5079 55.5442 52.7061C56.7841 50.9044 57.4497 48.784 57.4571 46.6126C57.462 45.1684 57.1755 43.7375 56.6139 42.4017C56.0523 41.0659 55.2267 39.8514 54.1844 38.8279C53.1421 37.8043 51.9034 36.9917 50.5394 36.4366C49.1754 35.8815 47.7128 35.5948 46.2353 35.5929V35.5929Z" fill="#36BE21"/>
<path d="M56.6895 57.6033C56.6914 57.3856 56.7807 57.1774 56.9382 57.0234C57.0957 56.8695 57.3087 56.7822 57.5315 56.7803C57.7421 56.7996 57.9377 56.8951 58.0801 57.048C58.2225 57.2008 58.3014 57.4002 58.3014 57.6069C58.3014 57.8137 58.2225 58.013 58.0801 58.1659C57.9377 58.3188 57.7421 58.4142 57.5315 58.4336C57.3075 58.4317 57.0933 58.3433 56.9356 58.1878C56.7779 58.0323 56.6894 57.8222 56.6895 57.6033Z" fill="#36BE21"/>
<path d="M22.0853 51.5871C22.0963 51.7002 22.083 51.8143 22.0462 51.922C22.0094 52.0298 21.95 52.1289 21.8718 52.213C21.7936 52.297 21.6983 52.3642 21.592 52.4101C21.4857 52.456 21.3707 52.4798 21.2545 52.4798C21.1382 52.4798 21.0233 52.456 20.917 52.4101C20.8107 52.3642 20.7154 52.297 20.6371 52.213C20.5589 52.1289 20.4995 52.0298 20.4628 51.922C20.426 51.8143 20.4127 51.7002 20.4236 51.5871C20.4329 51.3762 20.5232 51.1766 20.6766 51.0281C20.8299 50.8795 21.035 50.793 21.2508 50.7859C21.4684 50.7895 21.6763 50.8746 21.8316 51.0237C21.9869 51.1728 22.0777 51.3744 22.0853 51.5871V51.5871Z" fill="#B8B8B8"/>
<path d="M43.6264 46.4597C43.6353 46.2387 43.678 46.0202 43.753 45.8115C43.8162 45.7031 43.8352 45.5753 43.8062 45.4538C43.7772 45.3323 43.7023 45.2259 43.5966 45.156C43.1122 44.7117 42.6502 44.2456 42.1808 43.7795C41.7114 43.3133 41.689 42.8545 42.0467 42.4976C42.1374 42.4136 42.2453 42.3493 42.3633 42.309C42.4813 42.2686 42.6066 42.2531 42.7312 42.2634C42.8557 42.2737 42.9766 42.3096 43.0859 42.3688C43.1953 42.428 43.2906 42.5091 43.3656 42.6069C43.8574 43.0876 44.3492 43.561 44.8558 44.0635C44.9132 44.1438 44.9983 44.2013 45.0954 44.2253C45.1925 44.2494 45.2953 44.2385 45.3849 44.1946C45.9338 43.9868 46.5424 43.9868 47.0913 44.1946C47.18 44.242 47.2832 44.2563 47.3819 44.2349C47.4806 44.2135 47.568 44.1577 47.6278 44.0781C48.8796 42.8399 50.124 41.609 51.4056 40.4C51.6292 40.1927 51.9246 40.0757 52.2327 40.0723C52.3847 40.0933 52.5275 40.1557 52.645 40.2522C52.7625 40.3487 52.8499 40.4755 52.8973 40.6182C52.9446 40.7609 52.9501 40.9137 52.9129 41.0593C52.8758 41.2048 52.7976 41.3373 52.6873 41.4415C52.2402 41.9222 51.7559 42.3665 51.2864 42.8254C50.4742 43.6192 49.662 44.4204 48.8424 45.207C48.7507 45.2727 48.6861 45.3683 48.6601 45.4764C48.6342 45.5846 48.6486 45.6983 48.7008 45.797C48.784 46.1202 48.8012 46.4564 48.7514 46.7862C48.7017 47.116 48.586 47.4329 48.411 47.719C48.2359 48.0051 48.0049 48.2547 47.7312 48.4535C47.4574 48.6523 47.1463 48.7965 46.8156 48.8778C46.4848 48.9591 46.1409 48.9759 45.8035 48.9273C45.4661 48.8787 45.1418 48.7656 44.8492 48.5945C44.5565 48.4234 44.3011 48.1976 44.0977 47.9301C43.8943 47.6625 43.7468 47.3584 43.6636 47.0351C43.639 46.8443 43.6265 46.6521 43.6264 46.4597V46.4597ZM46.1971 45.6804C46.0184 45.6862 45.8453 45.7433 45.6997 45.8447C45.554 45.9461 45.4422 46.0872 45.3781 46.2504C45.3141 46.4136 45.3007 46.5916 45.3397 46.7622C45.3787 46.9328 45.4683 47.0883 45.5973 47.2094C45.7262 47.3305 45.8889 47.4117 46.0648 47.4428C46.2408 47.474 46.4223 47.4538 46.5865 47.3846C46.7507 47.3155 46.8905 47.2005 46.9882 47.0542C47.0859 46.9078 47.1373 46.7365 47.136 46.5617C47.1301 46.3235 47.0281 46.0971 46.8523 45.932C46.6764 45.767 46.4409 45.6765 46.1971 45.6804V45.6804Z" fill="#B8B8B8"/>
<path d="M37.6877 47.4139C37.4694 47.3947 37.2528 47.3606 37.0394 47.3119C36.8618 47.2671 36.7074 47.1599 36.6056 47.0107C36.5039 46.8615 36.462 46.6809 36.488 46.5035C36.4867 46.3245 36.5528 46.1514 36.6737 46.0171C36.7947 45.8827 36.962 45.7966 37.1437 45.7751C37.4878 45.7351 37.8354 45.7351 38.1795 45.7751C38.2832 45.7807 38.3849 45.8063 38.4785 45.8503C38.5722 45.8944 38.656 45.956 38.7253 46.0318C38.7945 46.1076 38.8477 46.196 38.8819 46.2919C38.9161 46.3879 38.9306 46.4894 38.9246 46.5909C38.9223 46.7912 38.8454 46.9838 38.7082 47.1326C38.571 47.2815 38.383 47.3763 38.1795 47.3993C38.0304 47.3993 37.874 47.3993 37.7249 47.3993L37.6877 47.4139Z" fill="#B8B8B8"/>
<path d="M47.0541 38.2368C47.0541 38.3825 47.0541 38.5355 47.0541 38.6811C47.0406 38.8827 46.9477 39.0713 46.7948 39.2071C46.6419 39.343 46.441 39.4155 46.2344 39.4095C46.0258 39.4176 45.8222 39.3461 45.6665 39.2102C45.5107 39.0743 45.4151 38.8846 45.3998 38.6811C45.3849 38.4118 45.3849 38.142 45.3998 37.8727C45.3958 37.7644 45.4143 37.6565 45.4541 37.5554C45.494 37.4543 45.5544 37.3622 45.6317 37.2846C45.709 37.207 45.8016 37.1455 45.9039 37.1039C46.0062 37.0622 46.1161 37.0413 46.227 37.0424C46.3383 37.0373 46.4495 37.0548 46.5535 37.0939C46.6576 37.133 46.7521 37.1927 46.8313 37.2694C46.9105 37.3461 46.9725 37.438 47.0134 37.5394C47.0543 37.6407 47.0732 37.7492 47.069 37.8581C47.069 37.9819 47.069 38.0985 47.069 38.2223L47.0541 38.2368Z" fill="#B8B8B8"/>
<path d="M45.3418 54.8429C45.3599 54.5943 45.4125 54.3493 45.4983 54.1146C45.5728 53.9591 45.7012 53.8343 45.8607 53.7623C46.0203 53.6904 46.2007 53.6758 46.3701 53.7213C46.5508 53.748 46.7165 53.8353 46.8388 53.9681C46.9611 54.1009 47.0324 54.2711 47.0407 54.4496C47.0594 54.7212 47.0594 54.9937 47.0407 55.2653C47.0409 55.4832 46.955 55.6928 46.8009 55.8502C46.6467 56.0077 46.4363 56.1008 46.2136 56.1102C46.103 56.1092 45.9937 56.087 45.892 56.0448C45.7902 56.0025 45.6979 55.9411 45.6204 55.864C45.5429 55.7869 45.4817 55.6956 45.4403 55.5954C45.3989 55.4952 45.3781 55.388 45.3791 55.2799C45.3791 55.1415 45.3791 55.0104 45.3791 54.872L45.3418 54.8429Z" fill="#B8B8B8"/>
<path d="M54.7594 45.7678C54.901 45.7678 55.0426 45.7678 55.1767 45.7678C55.3809 45.7827 55.5717 45.873 55.7101 46.0205C55.8486 46.168 55.9243 46.3616 55.9218 46.5617C55.9284 46.7659 55.8549 46.9648 55.7164 47.1178C55.5779 47.2708 55.3848 47.3663 55.1767 47.3847C54.8865 47.4066 54.595 47.4066 54.3049 47.3847C54.1937 47.3839 54.0838 47.3611 53.9818 47.3178C53.8798 47.2744 53.7878 47.2115 53.7113 47.1326C53.6348 47.0537 53.5753 46.9606 53.5365 46.8588C53.4976 46.7569 53.4802 46.6485 53.4852 46.5399C53.4871 46.435 53.5103 46.3315 53.5534 46.2354C53.5965 46.1394 53.6586 46.0526 53.7362 45.9801C53.8138 45.9076 53.9054 45.8509 54.0055 45.8132C54.1057 45.7756 54.2125 45.7577 54.3198 45.7606H54.7296L54.7594 45.7678Z" fill="#B8B8B8"/>
</g>
<defs>
<clipPath id="clip0_902_7125">
<rect width="48.4616" height="40.0001" fill="white" transform="translate(18.2695 23)"/>
</clipPath>
</defs>
</svg>
