<svg width="25" height="24" viewBox="0 0 25 24" fill="none" xmlns="http://www.w3.org/2000/svg">
<g clip-path="url(#clip0_984_4070)">
<path d="M24.5043 5.18952C23.6693 5.55952 22.7723 5.80952 21.8293 5.92252C22.8023 5.34031 23.5303 4.42398 23.8773 3.34452C22.9632 3.88751 21.9627 4.26971 20.9193 4.47452C20.2177 3.72538 19.2884 3.22884 18.2757 3.06199C17.2629 2.89514 16.2234 3.06731 15.3186 3.55177C14.4137 4.03623 13.6941 4.80588 13.2715 5.74122C12.8489 6.67656 12.7469 7.72527 12.9813 8.72452C11.129 8.63151 9.31697 8.15007 7.66276 7.31142C6.00856 6.47278 4.54918 5.29568 3.37934 3.85652C2.97934 4.54652 2.74934 5.34652 2.74934 6.19852C2.74889 6.96551 2.93777 7.72076 3.29922 8.39725C3.66066 9.07374 4.1835 9.65056 4.82134 10.0765C4.08162 10.053 3.35821 9.8531 2.71134 9.49352V9.55352C2.71127 10.6293 3.08337 11.6719 3.76452 12.5045C4.44567 13.3371 5.39391 13.9084 6.44834 14.1215C5.76212 14.3072 5.04268 14.3346 4.34434 14.2015C4.64184 15.1271 5.22134 15.9365 6.00171 16.5164C6.78208 17.0963 7.72426 17.4177 8.69634 17.4355C7.04617 18.7309 5.00823 19.4336 2.91034 19.4305C2.53872 19.4306 2.16742 19.4089 1.79834 19.3655C3.92782 20.7347 6.40668 21.4613 8.93834 21.4585C17.5083 21.4585 22.1933 14.3605 22.1933 8.20452C22.1933 8.00452 22.1883 7.80252 22.1793 7.60252C23.0906 6.94349 23.8773 6.12741 24.5023 5.19252L24.5043 5.18952V5.18952Z" fill="#B8B8B8"/>
</g>
<defs>
<clipPath id="clip0_984_4070">
<rect width="24" height="24" fill="white" transform="translate(0.861328)"/>
</clipPath>
</defs>
</svg>
